<mxfile host="65bd71144e">
    <diagram id="lfrja2c9NXXqSKR18kI1" name="Architecture">
        <mxGraphModel dx="1126" dy="485" grid="1" gridSize="10" guides="1" tooltips="1" connect="1" arrows="1" fold="1" page="1" pageScale="1" pageWidth="850" pageHeight="1100" math="0" shadow="0">
            <root>
                <mxCell id="0"/>
                <mxCell id="1" parent="0"/>
                <mxCell id="c5inpVJ8Dtw9ZmSwD49G-1" value="" style="edgeStyle=orthogonalEdgeStyle;rounded=0;orthogonalLoop=1;jettySize=auto;html=1;" parent="1" source="c5inpVJ8Dtw9ZmSwD49G-3" target="c5inpVJ8Dtw9ZmSwD49G-5" edge="1">
                    <mxGeometry relative="1" as="geometry"/>
                </mxCell>
                <mxCell id="c5inpVJ8Dtw9ZmSwD49G-2" value="CRUD" style="edgeLabel;html=1;align=center;verticalAlign=middle;resizable=0;points=[];" parent="c5inpVJ8Dtw9ZmSwD49G-1" connectable="0" vertex="1">
                    <mxGeometry x="-0.3161" relative="1" as="geometry">
                        <mxPoint x="22" as="offset"/>
                    </mxGeometry>
                </mxCell>
                <mxCell id="c5inpVJ8Dtw9ZmSwD49G-3" value="Catalog" style="rounded=0;whiteSpace=wrap;html=1;fillColor=#fff2cc;strokeColor=#0F0D06;fontColor=#000000;" parent="1" vertex="1">
                    <mxGeometry x="310" y="580" width="120" height="60" as="geometry"/>
                </mxCell>
                <mxCell id="c5inpVJ8Dtw9ZmSwD49G-5" value="Catalog DB" style="shape=cylinder3;whiteSpace=wrap;html=1;boundedLbl=1;backgroundOutline=1;size=7;fillColor=#fff2cc;strokeColor=#0F0D06;fontColor=#000000;" parent="1" vertex="1">
                    <mxGeometry x="550" y="585" width="60" height="50" as="geometry"/>
                </mxCell>
                <mxCell id="c5inpVJ8Dtw9ZmSwD49G-6" value="" style="edgeStyle=orthogonalEdgeStyle;rounded=0;orthogonalLoop=1;jettySize=auto;html=1;exitX=1;exitY=0.5;exitDx=0;exitDy=0;entryX=0;entryY=0.5;entryDx=0;entryDy=0;" parent="1" source="c5inpVJ8Dtw9ZmSwD49G-26" target="c5inpVJ8Dtw9ZmSwD49G-3" edge="1">
                    <mxGeometry x="0.0833" relative="1" as="geometry">
                        <mxPoint x="230" y="510" as="sourcePoint"/>
                        <mxPoint as="offset"/>
                        <Array as="points">
                            <mxPoint x="230" y="630"/>
                            <mxPoint x="230" y="610"/>
                        </Array>
                    </mxGeometry>
                </mxCell>
                <mxCell id="c5inpVJ8Dtw9ZmSwD49G-7" value="CRUD" style="edgeStyle=orthogonalEdgeStyle;rounded=0;orthogonalLoop=1;jettySize=auto;html=1;entryX=0;entryY=0.5;entryDx=0;entryDy=0;entryPerimeter=0;" parent="1" source="c5inpVJ8Dtw9ZmSwD49G-9" target="c5inpVJ8Dtw9ZmSwD49G-10" edge="1">
                    <mxGeometry relative="1" as="geometry">
                        <mxPoint x="490" y="690" as="targetPoint"/>
                        <Array as="points">
                            <mxPoint x="500" y="700"/>
                            <mxPoint x="500" y="700"/>
                        </Array>
                    </mxGeometry>
                </mxCell>
                <mxCell id="c5inpVJ8Dtw9ZmSwD49G-8" value="" style="edgeStyle=orthogonalEdgeStyle;rounded=0;orthogonalLoop=1;jettySize=auto;html=1;dashed=1;" parent="1" source="c5inpVJ8Dtw9ZmSwD49G-9" target="c5inpVJ8Dtw9ZmSwD49G-14" edge="1">
                    <mxGeometry relative="1" as="geometry"/>
                </mxCell>
                <mxCell id="c5inpVJ8Dtw9ZmSwD49G-9" value="Marketplace" style="rounded=0;whiteSpace=wrap;html=1;fillColor=#fff2cc;strokeColor=#0F0D06;fontColor=#000000;" parent="1" vertex="1">
                    <mxGeometry x="310" y="670" width="120" height="60" as="geometry"/>
                </mxCell>
                <mxCell id="c5inpVJ8Dtw9ZmSwD49G-10" value="Offer DB" style="shape=cylinder3;whiteSpace=wrap;html=1;boundedLbl=1;backgroundOutline=1;size=7;fillColor=#fff2cc;strokeColor=#0F0D06;fontColor=#000000;" parent="1" vertex="1">
                    <mxGeometry x="550" y="675" width="60" height="50" as="geometry"/>
                </mxCell>
                <mxCell id="c5inpVJ8Dtw9ZmSwD49G-11" value="Notification" style="rounded=0;whiteSpace=wrap;html=1;fillColor=#f8cecc;strokeColor=#b85450;fontColor=#000000;" parent="1" vertex="1">
                    <mxGeometry x="310" y="840" width="120" height="60" as="geometry"/>
                </mxCell>
                <mxCell id="c5inpVJ8Dtw9ZmSwD49G-12" value="" style="edgeStyle=orthogonalEdgeStyle;rounded=0;orthogonalLoop=1;jettySize=auto;html=1;exitX=1;exitY=0.5;exitDx=0;exitDy=0;entryX=0;entryY=0.5;entryDx=0;entryDy=0;" parent="1" source="c5inpVJ8Dtw9ZmSwD49G-26" target="c5inpVJ8Dtw9ZmSwD49G-9" edge="1">
                    <mxGeometry relative="1" as="geometry">
                        <mxPoint x="230" y="660" as="sourcePoint"/>
                        <Array as="points">
                            <mxPoint x="230" y="630"/>
                            <mxPoint x="230" y="700"/>
                        </Array>
                    </mxGeometry>
                </mxCell>
                <mxCell id="c5inpVJ8Dtw9ZmSwD49G-13" value="" style="edgeStyle=orthogonalEdgeStyle;rounded=0;orthogonalLoop=1;jettySize=auto;html=1;dashed=1;entryX=1;entryY=0.5;entryDx=0;entryDy=0;" parent="1" source="c5inpVJ8Dtw9ZmSwD49G-14" target="c5inpVJ8Dtw9ZmSwD49G-11" edge="1">
                    <mxGeometry relative="1" as="geometry">
                        <mxPoint x="440" y="800" as="sourcePoint"/>
                        <Array as="points">
                            <mxPoint x="510" y="780"/>
                            <mxPoint x="510" y="870"/>
                        </Array>
                        <mxPoint x="430" y="830" as="targetPoint"/>
                    </mxGeometry>
                </mxCell>
                <mxCell id="c5inpVJ8Dtw9ZmSwD49G-14" value="Notif Queue" style="sketch=0;outlineConnect=0;strokeColor=#b85450;fillColor=#f8cecc;dashed=0;verticalLabelPosition=bottom;verticalAlign=top;align=center;html=1;fontSize=12;fontStyle=0;aspect=fixed;shape=mxgraph.aws4.resourceIcon;resIcon=mxgraph.aws4.queue;" parent="1" vertex="1">
                    <mxGeometry x="350" y="760" width="40" height="40" as="geometry"/>
                </mxCell>
                <mxCell id="c5inpVJ8Dtw9ZmSwD49G-15" value="&lt;h1&gt;Architecture&lt;/h1&gt;&lt;p&gt;&lt;br&gt;&lt;/p&gt;" style="text;html=1;strokeColor=none;fillColor=none;spacing=5;spacingTop=-20;whiteSpace=wrap;overflow=hidden;rounded=0;" parent="1" vertex="1">
                    <mxGeometry x="10" y="20" width="160" height="40" as="geometry"/>
                </mxCell>
                <mxCell id="c5inpVJ8Dtw9ZmSwD49G-19" value="" style="edgeStyle=orthogonalEdgeStyle;rounded=0;orthogonalLoop=1;jettySize=auto;html=1;" parent="1" source="c5inpVJ8Dtw9ZmSwD49G-20" target="c5inpVJ8Dtw9ZmSwD49G-27" edge="1">
                    <mxGeometry relative="1" as="geometry"/>
                </mxCell>
                <mxCell id="c5inpVJ8Dtw9ZmSwD49G-20" value="User Management" style="rounded=0;whiteSpace=wrap;html=1;fillColor=#fff2cc;strokeColor=#d6b656;fontColor=#000000;" parent="1" vertex="1">
                    <mxGeometry x="50" y="200" width="120" height="60" as="geometry"/>
                </mxCell>
                <mxCell id="c5inpVJ8Dtw9ZmSwD49G-22" value="" style="endArrow=none;dashed=1;html=1;dashPattern=1 3;strokeWidth=2;rounded=0;entryX=0.5;entryY=1;entryDx=0;entryDy=0;" parent="1" target="c5inpVJ8Dtw9ZmSwD49G-20" edge="1">
                    <mxGeometry width="50" height="50" relative="1" as="geometry">
                        <mxPoint x="110" y="920" as="sourcePoint"/>
                        <mxPoint x="110" y="460" as="targetPoint"/>
                    </mxGeometry>
                </mxCell>
                <mxCell id="c5inpVJ8Dtw9ZmSwD49G-23" value="" style="endArrow=none;dashed=1;html=1;dashPattern=1 3;strokeWidth=2;rounded=0;entryX=1;entryY=0.5;entryDx=0;entryDy=0;" parent="1" target="c5inpVJ8Dtw9ZmSwD49G-20" edge="1">
                    <mxGeometry width="50" height="50" relative="1" as="geometry">
                        <mxPoint x="750" y="230" as="sourcePoint"/>
                        <mxPoint x="110" y="300" as="targetPoint"/>
                        <Array as="points">
                            <mxPoint x="550" y="230"/>
                        </Array>
                    </mxGeometry>
                </mxCell>
                <mxCell id="c5inpVJ8Dtw9ZmSwD49G-24" value="" style="endArrow=none;dashed=1;html=1;dashPattern=1 3;strokeWidth=2;rounded=0;" parent="1" edge="1">
                    <mxGeometry width="50" height="50" relative="1" as="geometry">
                        <mxPoint x="750" y="920" as="sourcePoint"/>
                        <mxPoint x="750" y="230" as="targetPoint"/>
                    </mxGeometry>
                </mxCell>
                <mxCell id="c5inpVJ8Dtw9ZmSwD49G-25" value="" style="endArrow=none;dashed=1;html=1;dashPattern=1 3;strokeWidth=2;rounded=0;" parent="1" edge="1">
                    <mxGeometry width="50" height="50" relative="1" as="geometry">
                        <mxPoint x="750" y="920" as="sourcePoint"/>
                        <mxPoint x="110" y="920" as="targetPoint"/>
                    </mxGeometry>
                </mxCell>
                <mxCell id="c5inpVJ8Dtw9ZmSwD49G-26" value="&lt;font color=&quot;#000000&quot;&gt;Frontend&lt;/font&gt;" style="rounded=0;whiteSpace=wrap;html=1;fillColor=#f8cecc;strokeColor=#b85450;" parent="1" vertex="1">
                    <mxGeometry x="40" y="600" width="120" height="60" as="geometry"/>
                </mxCell>
                <mxCell id="c5inpVJ8Dtw9ZmSwD49G-27" value="&lt;font color=&quot;#000000&quot;&gt;User DB&lt;/font&gt;" style="shape=cylinder3;whiteSpace=wrap;html=1;boundedLbl=1;backgroundOutline=1;size=15;fillColor=#fff2cc;strokeColor=#d6b656;" parent="1" vertex="1">
                    <mxGeometry x="80" y="90" width="60" height="80" as="geometry"/>
                </mxCell>
                <mxCell id="XI5ivti8DZhAzD8KgaWN-1" value="&lt;font color=&quot;#080808&quot;&gt;Comments&lt;br&gt;&lt;/font&gt;" style="rounded=0;whiteSpace=wrap;html=1;fillColor=#f8cecc;strokeColor=#b85450;" parent="1" vertex="1">
                    <mxGeometry x="310" y="490" width="120" height="60" as="geometry"/>
                </mxCell>
                <mxCell id="1LEVEkLSSkrcWmBPL1v5-5" value="" style="edgeStyle=orthogonalEdgeStyle;rounded=0;orthogonalLoop=1;jettySize=auto;html=1;exitX=1;exitY=0.5;exitDx=0;exitDy=0;" parent="1" source="XI5ivti8DZhAzD8KgaWN-1" edge="1">
                    <mxGeometry relative="1" as="geometry">
                        <mxPoint x="440" y="590" as="sourcePoint"/>
                        <mxPoint x="550" y="520" as="targetPoint"/>
                    </mxGeometry>
                </mxCell>
                <mxCell id="1LEVEkLSSkrcWmBPL1v5-6" value="CRUD" style="edgeLabel;html=1;align=center;verticalAlign=middle;resizable=0;points=[];" parent="1LEVEkLSSkrcWmBPL1v5-5" connectable="0" vertex="1">
                    <mxGeometry x="-0.3161" relative="1" as="geometry">
                        <mxPoint x="22" as="offset"/>
                    </mxGeometry>
                </mxCell>
                <mxCell id="DOEXVbuRZUC_l2721NO5-2" value="" style="edgeStyle=orthogonalEdgeStyle;rounded=0;orthogonalLoop=1;jettySize=auto;html=1;exitX=1;exitY=0.5;exitDx=0;exitDy=0;entryX=0;entryY=0.5;entryDx=0;entryDy=0;" parent="1" source="c5inpVJ8Dtw9ZmSwD49G-26" target="c5inpVJ8Dtw9ZmSwD49G-11" edge="1">
                    <mxGeometry relative="1" as="geometry">
                        <mxPoint x="170" y="640" as="sourcePoint"/>
                        <mxPoint x="320" y="710" as="targetPoint"/>
                        <Array as="points">
                            <mxPoint x="230" y="630"/>
                            <mxPoint x="230" y="870"/>
                        </Array>
                    </mxGeometry>
                </mxCell>
                <mxCell id="DOEXVbuRZUC_l2721NO5-4" value="&lt;font color=&quot;#080808&quot;&gt;Ratings&lt;br&gt;&lt;/font&gt;" style="rounded=0;whiteSpace=wrap;html=1;fillColor=#f8cecc;strokeColor=#b85450;" parent="1" vertex="1">
                    <mxGeometry x="310" y="400" width="120" height="60" as="geometry"/>
                </mxCell>
                <mxCell id="DOEXVbuRZUC_l2721NO5-5" value="&lt;font color=&quot;#080808&quot;&gt;List&lt;br&gt;&lt;/font&gt;" style="rounded=0;whiteSpace=wrap;html=1;fillColor=#f8cecc;strokeColor=#b85450;" parent="1" vertex="1">
                    <mxGeometry x="310" y="310" width="120" height="60" as="geometry"/>
                </mxCell>
                <mxCell id="DOEXVbuRZUC_l2721NO5-9" value="Comments DB" style="shape=cylinder3;whiteSpace=wrap;html=1;boundedLbl=1;backgroundOutline=1;size=7;fillColor=#f8cecc;strokeColor=#b85450;fontColor=#080808;" parent="1" vertex="1">
                    <mxGeometry x="550" y="495" width="60" height="50" as="geometry"/>
                </mxCell>
                <mxCell id="DOEXVbuRZUC_l2721NO5-10" value="Ratings DB" style="shape=cylinder3;whiteSpace=wrap;html=1;boundedLbl=1;backgroundOutline=1;size=7;fillColor=#f8cecc;strokeColor=#b85450;fontColor=#080808;" parent="1" vertex="1">
                    <mxGeometry x="550" y="405" width="60" height="50" as="geometry"/>
                </mxCell>
                <mxCell id="DOEXVbuRZUC_l2721NO5-11" value="LIst DB" style="shape=cylinder3;whiteSpace=wrap;html=1;boundedLbl=1;backgroundOutline=1;size=7;fillColor=#f8cecc;strokeColor=#b85450;fontColor=#080808;" parent="1" vertex="1">
                    <mxGeometry x="550" y="315" width="60" height="50" as="geometry"/>
                </mxCell>
                <mxCell id="DOEXVbuRZUC_l2721NO5-14" value="" style="edgeStyle=orthogonalEdgeStyle;rounded=0;orthogonalLoop=1;jettySize=auto;html=1;exitX=1;exitY=0.5;exitDx=0;exitDy=0;entryX=0;entryY=0.5;entryDx=0;entryDy=0;entryPerimeter=0;" parent="1" source="DOEXVbuRZUC_l2721NO5-4" target="DOEXVbuRZUC_l2721NO5-10" edge="1">
                    <mxGeometry relative="1" as="geometry">
                        <mxPoint x="440" y="540" as="sourcePoint"/>
                        <mxPoint x="560" y="540" as="targetPoint"/>
                    </mxGeometry>
                </mxCell>
                <mxCell id="DOEXVbuRZUC_l2721NO5-15" value="CRUD" style="edgeLabel;html=1;align=center;verticalAlign=middle;resizable=0;points=[];" parent="DOEXVbuRZUC_l2721NO5-14" connectable="0" vertex="1">
                    <mxGeometry x="-0.3161" relative="1" as="geometry">
                        <mxPoint x="22" as="offset"/>
                    </mxGeometry>
                </mxCell>
                <mxCell id="DOEXVbuRZUC_l2721NO5-16" value="" style="edgeStyle=orthogonalEdgeStyle;rounded=0;orthogonalLoop=1;jettySize=auto;html=1;exitX=1;exitY=0.5;exitDx=0;exitDy=0;entryX=0;entryY=0.5;entryDx=0;entryDy=0;entryPerimeter=0;" parent="1" source="DOEXVbuRZUC_l2721NO5-5" target="DOEXVbuRZUC_l2721NO5-11" edge="1">
                    <mxGeometry relative="1" as="geometry">
                        <mxPoint x="440" y="450" as="sourcePoint"/>
                        <mxPoint x="560" y="450" as="targetPoint"/>
                    </mxGeometry>
                </mxCell>
                <mxCell id="DOEXVbuRZUC_l2721NO5-17" value="CRUD" style="edgeLabel;html=1;align=center;verticalAlign=middle;resizable=0;points=[];" parent="DOEXVbuRZUC_l2721NO5-16" connectable="0" vertex="1">
                    <mxGeometry x="-0.3161" relative="1" as="geometry">
                        <mxPoint x="22" as="offset"/>
                    </mxGeometry>
                </mxCell>
                <mxCell id="-_2TZXZJGtMMXfVeeQrJ-1" value="" style="edgeStyle=orthogonalEdgeStyle;rounded=0;orthogonalLoop=1;jettySize=auto;html=1;exitX=1;exitY=0.5;exitDx=0;exitDy=0;entryX=0;entryY=0.5;entryDx=0;entryDy=0;" parent="1" source="c5inpVJ8Dtw9ZmSwD49G-26" target="XI5ivti8DZhAzD8KgaWN-1" edge="1">
                    <mxGeometry x="0.0833" relative="1" as="geometry">
                        <mxPoint x="170" y="640" as="sourcePoint"/>
                        <mxPoint as="offset"/>
                        <mxPoint x="319.9999999999998" y="620" as="targetPoint"/>
                        <Array as="points">
                            <mxPoint x="230" y="630"/>
                            <mxPoint x="230" y="520"/>
                        </Array>
                    </mxGeometry>
                </mxCell>
                <mxCell id="51Jq2rZjBrfLgaLOuRLq-1" value="&lt;h1&gt;Ideas&lt;/h1&gt;&lt;p&gt;- User should be able to create Boardgame nights groups which should allow for not only being able to see what games are available, but also have a randomizer of sorts.&lt;/p&gt;" style="text;html=1;strokeColor=none;fillColor=none;spacing=5;spacingTop=-20;whiteSpace=wrap;overflow=hidden;rounded=0;" parent="1" vertex="1">
                    <mxGeometry y="1100" width="410" height="120" as="geometry"/>
                </mxCell>
            </root>
        </mxGraphModel>
    </diagram>
    <diagram id="FYwDTKNqhbrpbPmv0Ru3" name="Relations">
        <mxGraphModel dx="1976" dy="774" grid="1" gridSize="10" guides="1" tooltips="1" connect="1" arrows="1" fold="1" page="1" pageScale="1" pageWidth="850" pageHeight="1100" math="0" shadow="0">
            <root>
                <mxCell id="JIDkRxaZU-pqOcT1NkvT-0"/>
                <mxCell id="JIDkRxaZU-pqOcT1NkvT-1" parent="JIDkRxaZU-pqOcT1NkvT-0"/>
                <mxCell id="JIDkRxaZU-pqOcT1NkvT-2" value="Boardgame" style="shape=table;startSize=30;container=1;collapsible=1;childLayout=tableLayout;fixedRows=1;rowLines=0;fontStyle=0;align=center;resizeLast=1;fillColor=#ffe6cc;strokeColor=default;fontColor=#080808;sketch=0;strokeWidth=1;columnLines=1;" parent="JIDkRxaZU-pqOcT1NkvT-1" vertex="1">
                    <mxGeometry x="-830" y="30" width="240" height="360" as="geometry">
                        <mxRectangle x="-520" y="400" width="70" height="30" as="alternateBounds"/>
                    </mxGeometry>
                </mxCell>
                <mxCell id="JIDkRxaZU-pqOcT1NkvT-3" value="" style="shape=tableRow;horizontal=0;startSize=0;swimlaneHead=0;swimlaneBody=0;fillColor=none;collapsible=0;dropTarget=0;points=[[0,0.5],[1,0.5]];portConstraint=eastwest;top=0;left=0;right=0;bottom=1;" parent="JIDkRxaZU-pqOcT1NkvT-2" vertex="1">
                    <mxGeometry y="30" width="240" height="30" as="geometry"/>
                </mxCell>
                <mxCell id="JIDkRxaZU-pqOcT1NkvT-4" value="PK" style="shape=partialRectangle;connectable=0;fillColor=default;top=0;left=0;bottom=0;right=0;fontStyle=0;overflow=hidden;" parent="JIDkRxaZU-pqOcT1NkvT-3" vertex="1">
                    <mxGeometry width="30" height="30" as="geometry">
                        <mxRectangle width="30" height="30" as="alternateBounds"/>
                    </mxGeometry>
                </mxCell>
                <mxCell id="JIDkRxaZU-pqOcT1NkvT-5" value="boardgame_id" style="shape=partialRectangle;connectable=0;fillColor=default;top=0;left=0;bottom=0;right=0;align=left;spacingLeft=6;fontStyle=0;overflow=hidden;" parent="JIDkRxaZU-pqOcT1NkvT-3" vertex="1">
                    <mxGeometry x="30" width="175" height="30" as="geometry">
                        <mxRectangle width="175" height="30" as="alternateBounds"/>
                    </mxGeometry>
                </mxCell>
                <mxCell id="rOWEKMxxm3YEzdJL4sGp-43" value="uuid" style="shape=partialRectangle;connectable=0;fillColor=default;top=0;left=0;bottom=0;right=0;align=left;spacingLeft=6;fontStyle=0;overflow=hidden;strokeColor=default;strokeWidth=2;fontSize=8;" parent="JIDkRxaZU-pqOcT1NkvT-3" vertex="1">
                    <mxGeometry x="205" width="35" height="30" as="geometry">
                        <mxRectangle width="35" height="30" as="alternateBounds"/>
                    </mxGeometry>
                </mxCell>
                <mxCell id="JIDkRxaZU-pqOcT1NkvT-6" value="" style="shape=tableRow;horizontal=0;startSize=0;swimlaneHead=0;swimlaneBody=0;fillColor=none;collapsible=0;dropTarget=0;points=[[0,0.5],[1,0.5]];portConstraint=eastwest;top=0;left=0;right=0;bottom=0;" parent="JIDkRxaZU-pqOcT1NkvT-2" vertex="1">
                    <mxGeometry y="60" width="240" height="30" as="geometry"/>
                </mxCell>
                <mxCell id="JIDkRxaZU-pqOcT1NkvT-7" value="" style="shape=partialRectangle;connectable=0;fillColor=default;top=0;left=0;bottom=0;right=0;editable=1;overflow=hidden;" parent="JIDkRxaZU-pqOcT1NkvT-6" vertex="1">
                    <mxGeometry width="30" height="30" as="geometry">
                        <mxRectangle width="30" height="30" as="alternateBounds"/>
                    </mxGeometry>
                </mxCell>
                <mxCell id="JIDkRxaZU-pqOcT1NkvT-8" value="name        " style="shape=partialRectangle;connectable=0;fillColor=default;top=0;left=0;bottom=0;right=0;align=left;spacingLeft=6;overflow=hidden;" parent="JIDkRxaZU-pqOcT1NkvT-6" vertex="1">
                    <mxGeometry x="30" width="175" height="30" as="geometry">
                        <mxRectangle width="175" height="30" as="alternateBounds"/>
                    </mxGeometry>
                </mxCell>
                <mxCell id="rOWEKMxxm3YEzdJL4sGp-44" value="string" style="shape=partialRectangle;connectable=0;fillColor=default;top=0;left=0;bottom=0;right=0;align=left;spacingLeft=6;overflow=hidden;strokeColor=default;strokeWidth=2;fontSize=8;" parent="JIDkRxaZU-pqOcT1NkvT-6" vertex="1">
                    <mxGeometry x="205" width="35" height="30" as="geometry">
                        <mxRectangle width="35" height="30" as="alternateBounds"/>
                    </mxGeometry>
                </mxCell>
                <mxCell id="JIDkRxaZU-pqOcT1NkvT-9" value="" style="shape=tableRow;horizontal=0;startSize=0;swimlaneHead=0;swimlaneBody=0;fillColor=none;collapsible=0;dropTarget=0;points=[[0,0.5],[1,0.5]];portConstraint=eastwest;top=0;left=0;right=0;bottom=0;" parent="JIDkRxaZU-pqOcT1NkvT-2" vertex="1">
                    <mxGeometry y="90" width="240" height="30" as="geometry"/>
                </mxCell>
                <mxCell id="JIDkRxaZU-pqOcT1NkvT-10" value="" style="shape=partialRectangle;connectable=0;fillColor=default;top=0;left=0;bottom=0;right=0;editable=1;overflow=hidden;" parent="JIDkRxaZU-pqOcT1NkvT-9" vertex="1">
                    <mxGeometry width="30" height="30" as="geometry">
                        <mxRectangle width="30" height="30" as="alternateBounds"/>
                    </mxGeometry>
                </mxCell>
                <mxCell id="JIDkRxaZU-pqOcT1NkvT-11" value="publisher" style="shape=partialRectangle;connectable=0;fillColor=default;top=0;left=0;bottom=0;right=0;align=left;spacingLeft=6;overflow=hidden;" parent="JIDkRxaZU-pqOcT1NkvT-9" vertex="1">
                    <mxGeometry x="30" width="175" height="30" as="geometry">
                        <mxRectangle width="175" height="30" as="alternateBounds"/>
                    </mxGeometry>
                </mxCell>
                <mxCell id="rOWEKMxxm3YEzdJL4sGp-45" value="string" style="shape=partialRectangle;connectable=0;fillColor=default;top=0;left=0;bottom=0;right=0;align=left;spacingLeft=6;overflow=hidden;strokeColor=default;strokeWidth=2;fontSize=8;" parent="JIDkRxaZU-pqOcT1NkvT-9" vertex="1">
                    <mxGeometry x="205" width="35" height="30" as="geometry">
                        <mxRectangle width="35" height="30" as="alternateBounds"/>
                    </mxGeometry>
                </mxCell>
                <mxCell id="JIDkRxaZU-pqOcT1NkvT-12" value="" style="shape=tableRow;horizontal=0;startSize=0;swimlaneHead=0;swimlaneBody=0;fillColor=none;collapsible=0;dropTarget=0;points=[[0,0.5],[1,0.5]];portConstraint=eastwest;top=0;left=0;right=0;bottom=0;" parent="JIDkRxaZU-pqOcT1NkvT-2" vertex="1">
                    <mxGeometry y="120" width="240" height="30" as="geometry"/>
                </mxCell>
                <mxCell id="JIDkRxaZU-pqOcT1NkvT-13" value="" style="shape=partialRectangle;connectable=0;fillColor=default;top=0;left=0;bottom=0;right=0;editable=1;overflow=hidden;gradientColor=none;strokeWidth=5;" parent="JIDkRxaZU-pqOcT1NkvT-12" vertex="1">
                    <mxGeometry width="30" height="30" as="geometry">
                        <mxRectangle width="30" height="30" as="alternateBounds"/>
                    </mxGeometry>
                </mxCell>
                <mxCell id="JIDkRxaZU-pqOcT1NkvT-14" value="designer" style="shape=partialRectangle;connectable=0;fillColor=default;top=0;left=0;bottom=0;right=0;align=left;spacingLeft=6;overflow=hidden;" parent="JIDkRxaZU-pqOcT1NkvT-12" vertex="1">
                    <mxGeometry x="30" width="175" height="30" as="geometry">
                        <mxRectangle width="175" height="30" as="alternateBounds"/>
                    </mxGeometry>
                </mxCell>
                <mxCell id="rOWEKMxxm3YEzdJL4sGp-46" value="string" style="shape=partialRectangle;connectable=0;fillColor=default;top=0;left=0;bottom=0;right=0;align=left;spacingLeft=6;overflow=hidden;strokeColor=default;strokeWidth=2;fontSize=8;" parent="JIDkRxaZU-pqOcT1NkvT-12" vertex="1">
                    <mxGeometry x="205" width="35" height="30" as="geometry">
                        <mxRectangle width="35" height="30" as="alternateBounds"/>
                    </mxGeometry>
                </mxCell>
                <mxCell id="rOWEKMxxm3YEzdJL4sGp-76" style="shape=tableRow;horizontal=0;startSize=0;swimlaneHead=0;swimlaneBody=0;fillColor=none;collapsible=0;dropTarget=0;points=[[0,0.5],[1,0.5]];portConstraint=eastwest;top=0;left=0;right=0;bottom=0;" parent="JIDkRxaZU-pqOcT1NkvT-2" vertex="1">
                    <mxGeometry y="150" width="240" height="30" as="geometry"/>
                </mxCell>
                <mxCell id="rOWEKMxxm3YEzdJL4sGp-77" style="shape=partialRectangle;connectable=0;fillColor=default;top=0;left=0;bottom=0;right=0;editable=1;overflow=hidden;gradientColor=none;strokeWidth=5;" parent="rOWEKMxxm3YEzdJL4sGp-76" vertex="1">
                    <mxGeometry width="30" height="30" as="geometry">
                        <mxRectangle width="30" height="30" as="alternateBounds"/>
                    </mxGeometry>
                </mxCell>
                <mxCell id="rOWEKMxxm3YEzdJL4sGp-78" value="artist" style="shape=partialRectangle;connectable=0;fillColor=default;top=0;left=0;bottom=0;right=0;align=left;spacingLeft=6;overflow=hidden;" parent="rOWEKMxxm3YEzdJL4sGp-76" vertex="1">
                    <mxGeometry x="30" width="175" height="30" as="geometry">
                        <mxRectangle width="175" height="30" as="alternateBounds"/>
                    </mxGeometry>
                </mxCell>
                <mxCell id="rOWEKMxxm3YEzdJL4sGp-79" value="string" style="shape=partialRectangle;connectable=0;fillColor=default;top=0;left=0;bottom=0;right=0;align=left;spacingLeft=6;overflow=hidden;strokeColor=default;strokeWidth=2;fontSize=8;" parent="rOWEKMxxm3YEzdJL4sGp-76" vertex="1">
                    <mxGeometry x="205" width="35" height="30" as="geometry">
                        <mxRectangle width="35" height="30" as="alternateBounds"/>
                    </mxGeometry>
                </mxCell>
                <mxCell id="rOWEKMxxm3YEzdJL4sGp-18" style="shape=tableRow;horizontal=0;startSize=0;swimlaneHead=0;swimlaneBody=0;fillColor=none;collapsible=0;dropTarget=0;points=[[0,0.5],[1,0.5]];portConstraint=eastwest;top=0;left=0;right=0;bottom=0;" parent="JIDkRxaZU-pqOcT1NkvT-2" vertex="1">
                    <mxGeometry y="180" width="240" height="30" as="geometry"/>
                </mxCell>
                <mxCell id="rOWEKMxxm3YEzdJL4sGp-19" style="shape=partialRectangle;connectable=0;fillColor=default;top=0;left=0;bottom=0;right=0;editable=1;overflow=hidden;gradientColor=none;strokeWidth=5;" parent="rOWEKMxxm3YEzdJL4sGp-18" vertex="1">
                    <mxGeometry width="30" height="30" as="geometry">
                        <mxRectangle width="30" height="30" as="alternateBounds"/>
                    </mxGeometry>
                </mxCell>
                <mxCell id="rOWEKMxxm3YEzdJL4sGp-20" value="complexity" style="shape=partialRectangle;connectable=0;fillColor=default;top=0;left=0;bottom=0;right=0;align=left;spacingLeft=6;overflow=hidden;" parent="rOWEKMxxm3YEzdJL4sGp-18" vertex="1">
                    <mxGeometry x="30" width="175" height="30" as="geometry">
                        <mxRectangle width="175" height="30" as="alternateBounds"/>
                    </mxGeometry>
                </mxCell>
                <mxCell id="rOWEKMxxm3YEzdJL4sGp-47" value="float" style="shape=partialRectangle;connectable=0;fillColor=default;top=0;left=0;bottom=0;right=0;align=left;spacingLeft=6;overflow=hidden;strokeColor=default;strokeWidth=2;fontSize=8;" parent="rOWEKMxxm3YEzdJL4sGp-18" vertex="1">
                    <mxGeometry x="205" width="35" height="30" as="geometry">
                        <mxRectangle width="35" height="30" as="alternateBounds"/>
                    </mxGeometry>
                </mxCell>
                <mxCell id="rOWEKMxxm3YEzdJL4sGp-21" style="shape=tableRow;horizontal=0;startSize=0;swimlaneHead=0;swimlaneBody=0;fillColor=none;collapsible=0;dropTarget=0;points=[[0,0.5],[1,0.5]];portConstraint=eastwest;top=0;left=0;right=0;bottom=0;" parent="JIDkRxaZU-pqOcT1NkvT-2" vertex="1">
                    <mxGeometry y="210" width="240" height="30" as="geometry"/>
                </mxCell>
                <mxCell id="rOWEKMxxm3YEzdJL4sGp-22" style="shape=partialRectangle;connectable=0;fillColor=default;top=0;left=0;bottom=0;right=0;editable=1;overflow=hidden;gradientColor=none;strokeWidth=5;" parent="rOWEKMxxm3YEzdJL4sGp-21" vertex="1">
                    <mxGeometry width="30" height="30" as="geometry">
                        <mxRectangle width="30" height="30" as="alternateBounds"/>
                    </mxGeometry>
                </mxCell>
                <mxCell id="rOWEKMxxm3YEzdJL4sGp-23" value="number_players" style="shape=partialRectangle;connectable=0;fillColor=default;top=0;left=0;bottom=0;right=0;align=left;spacingLeft=6;overflow=hidden;" parent="rOWEKMxxm3YEzdJL4sGp-21" vertex="1">
                    <mxGeometry x="30" width="175" height="30" as="geometry">
                        <mxRectangle width="175" height="30" as="alternateBounds"/>
                    </mxGeometry>
                </mxCell>
                <mxCell id="rOWEKMxxm3YEzdJL4sGp-48" value="int" style="shape=partialRectangle;connectable=0;fillColor=default;top=0;left=0;bottom=0;right=0;align=left;spacingLeft=6;overflow=hidden;strokeColor=default;strokeWidth=2;fontSize=8;" parent="rOWEKMxxm3YEzdJL4sGp-21" vertex="1">
                    <mxGeometry x="205" width="35" height="30" as="geometry">
                        <mxRectangle width="35" height="30" as="alternateBounds"/>
                    </mxGeometry>
                </mxCell>
                <mxCell id="rOWEKMxxm3YEzdJL4sGp-53" style="shape=tableRow;horizontal=0;startSize=0;swimlaneHead=0;swimlaneBody=0;fillColor=none;collapsible=0;dropTarget=0;points=[[0,0.5],[1,0.5]];portConstraint=eastwest;top=0;left=0;right=0;bottom=0;" parent="JIDkRxaZU-pqOcT1NkvT-2" vertex="1">
                    <mxGeometry y="240" width="240" height="30" as="geometry"/>
                </mxCell>
                <mxCell id="rOWEKMxxm3YEzdJL4sGp-54" style="shape=partialRectangle;connectable=0;fillColor=default;top=0;left=0;bottom=0;right=0;editable=1;overflow=hidden;gradientColor=none;strokeWidth=5;" parent="rOWEKMxxm3YEzdJL4sGp-53" vertex="1">
                    <mxGeometry width="30" height="30" as="geometry">
                        <mxRectangle width="30" height="30" as="alternateBounds"/>
                    </mxGeometry>
                </mxCell>
                <mxCell id="rOWEKMxxm3YEzdJL4sGp-55" value="age" style="shape=partialRectangle;connectable=0;fillColor=default;top=0;left=0;bottom=0;right=0;align=left;spacingLeft=6;overflow=hidden;" parent="rOWEKMxxm3YEzdJL4sGp-53" vertex="1">
                    <mxGeometry x="30" width="175" height="30" as="geometry">
                        <mxRectangle width="175" height="30" as="alternateBounds"/>
                    </mxGeometry>
                </mxCell>
                <mxCell id="rOWEKMxxm3YEzdJL4sGp-56" value="int" style="shape=partialRectangle;connectable=0;fillColor=default;top=0;left=0;bottom=0;right=0;align=left;spacingLeft=6;overflow=hidden;strokeColor=default;strokeWidth=2;fontSize=8;" parent="rOWEKMxxm3YEzdJL4sGp-53" vertex="1">
                    <mxGeometry x="205" width="35" height="30" as="geometry">
                        <mxRectangle width="35" height="30" as="alternateBounds"/>
                    </mxGeometry>
                </mxCell>
                <mxCell id="TzDuA9say3nCo52_RQnB-4" style="shape=tableRow;horizontal=0;startSize=0;swimlaneHead=0;swimlaneBody=0;fillColor=none;collapsible=0;dropTarget=0;points=[[0,0.5],[1,0.5]];portConstraint=eastwest;top=0;left=0;right=0;bottom=0;" parent="JIDkRxaZU-pqOcT1NkvT-2" vertex="1">
                    <mxGeometry y="270" width="240" height="30" as="geometry"/>
                </mxCell>
                <mxCell id="TzDuA9say3nCo52_RQnB-5" style="shape=partialRectangle;connectable=0;fillColor=default;top=0;left=0;bottom=0;right=0;editable=1;overflow=hidden;gradientColor=none;strokeWidth=5;" parent="TzDuA9say3nCo52_RQnB-4" vertex="1">
                    <mxGeometry width="30" height="30" as="geometry">
                        <mxRectangle width="30" height="30" as="alternateBounds"/>
                    </mxGeometry>
                </mxCell>
                <mxCell id="TzDuA9say3nCo52_RQnB-6" value="play_time" style="shape=partialRectangle;connectable=0;fillColor=default;top=0;left=0;bottom=0;right=0;align=left;spacingLeft=6;overflow=hidden;" parent="TzDuA9say3nCo52_RQnB-4" vertex="1">
                    <mxGeometry x="30" width="175" height="30" as="geometry">
                        <mxRectangle width="175" height="30" as="alternateBounds"/>
                    </mxGeometry>
                </mxCell>
                <mxCell id="TzDuA9say3nCo52_RQnB-7" value="string" style="shape=partialRectangle;connectable=0;fillColor=default;top=0;left=0;bottom=0;right=0;align=left;spacingLeft=6;overflow=hidden;strokeColor=default;strokeWidth=2;fontSize=8;" parent="TzDuA9say3nCo52_RQnB-4" vertex="1">
                    <mxGeometry x="205" width="35" height="30" as="geometry">
                        <mxRectangle width="35" height="30" as="alternateBounds"/>
                    </mxGeometry>
                </mxCell>
                <mxCell id="TzDuA9say3nCo52_RQnB-8" style="shape=tableRow;horizontal=0;startSize=0;swimlaneHead=0;swimlaneBody=0;fillColor=none;collapsible=0;dropTarget=0;points=[[0,0.5],[1,0.5]];portConstraint=eastwest;top=0;left=0;right=0;bottom=0;" parent="JIDkRxaZU-pqOcT1NkvT-2" vertex="1">
                    <mxGeometry y="300" width="240" height="30" as="geometry"/>
                </mxCell>
                <mxCell id="TzDuA9say3nCo52_RQnB-9" style="shape=partialRectangle;connectable=0;fillColor=default;top=0;left=0;bottom=0;right=0;editable=1;overflow=hidden;gradientColor=none;strokeWidth=5;" parent="TzDuA9say3nCo52_RQnB-8" vertex="1">
                    <mxGeometry width="30" height="30" as="geometry">
                        <mxRectangle width="30" height="30" as="alternateBounds"/>
                    </mxGeometry>
                </mxCell>
                <mxCell id="TzDuA9say3nCo52_RQnB-10" value="release_date" style="shape=partialRectangle;connectable=0;fillColor=default;top=0;left=0;bottom=0;right=0;align=left;spacingLeft=6;overflow=hidden;" parent="TzDuA9say3nCo52_RQnB-8" vertex="1">
                    <mxGeometry x="30" width="175" height="30" as="geometry">
                        <mxRectangle width="175" height="30" as="alternateBounds"/>
                    </mxGeometry>
                </mxCell>
                <mxCell id="TzDuA9say3nCo52_RQnB-11" value="date" style="shape=partialRectangle;connectable=0;fillColor=default;top=0;left=0;bottom=0;right=0;align=left;spacingLeft=6;overflow=hidden;strokeColor=default;strokeWidth=2;fontSize=8;" parent="TzDuA9say3nCo52_RQnB-8" vertex="1">
                    <mxGeometry x="205" width="35" height="30" as="geometry">
                        <mxRectangle width="35" height="30" as="alternateBounds"/>
                    </mxGeometry>
                </mxCell>
                <mxCell id="rOWEKMxxm3YEzdJL4sGp-57" style="shape=tableRow;horizontal=0;startSize=0;swimlaneHead=0;swimlaneBody=0;fillColor=none;collapsible=0;dropTarget=0;points=[[0,0.5],[1,0.5]];portConstraint=eastwest;top=0;left=0;right=0;bottom=0;" parent="JIDkRxaZU-pqOcT1NkvT-2" vertex="1">
                    <mxGeometry y="330" width="240" height="30" as="geometry"/>
                </mxCell>
                <mxCell id="rOWEKMxxm3YEzdJL4sGp-58" value="FK" style="shape=partialRectangle;connectable=0;fillColor=default;top=0;left=0;bottom=0;right=0;editable=1;overflow=hidden;gradientColor=none;strokeWidth=5;" parent="rOWEKMxxm3YEzdJL4sGp-57" vertex="1">
                    <mxGeometry width="30" height="30" as="geometry">
                        <mxRectangle width="30" height="30" as="alternateBounds"/>
                    </mxGeometry>
                </mxCell>
                <mxCell id="rOWEKMxxm3YEzdJL4sGp-59" value="parent_boardgame_id" style="shape=partialRectangle;connectable=0;fillColor=default;top=0;left=0;bottom=0;right=0;align=left;spacingLeft=6;overflow=hidden;" parent="rOWEKMxxm3YEzdJL4sGp-57" vertex="1">
                    <mxGeometry x="30" width="175" height="30" as="geometry">
                        <mxRectangle width="175" height="30" as="alternateBounds"/>
                    </mxGeometry>
                </mxCell>
                <mxCell id="rOWEKMxxm3YEzdJL4sGp-60" value="uuid" style="shape=partialRectangle;connectable=0;fillColor=default;top=0;left=0;bottom=0;right=0;align=left;spacingLeft=6;overflow=hidden;strokeColor=default;strokeWidth=2;fontSize=8;" parent="rOWEKMxxm3YEzdJL4sGp-57" vertex="1">
                    <mxGeometry x="205" width="35" height="30" as="geometry">
                        <mxRectangle width="35" height="30" as="alternateBounds"/>
                    </mxGeometry>
                </mxCell>
                <mxCell id="JIDkRxaZU-pqOcT1NkvT-15" value="" style="edgeStyle=entityRelationEdgeStyle;fontSize=12;html=1;endArrow=ERzeroToMany;startArrow=ERmandOne;rounded=0;entryX=1;entryY=0.5;entryDx=0;entryDy=0;exitX=1;exitY=0;exitDx=0;exitDy=0;" parent="JIDkRxaZU-pqOcT1NkvT-2" source="JIDkRxaZU-pqOcT1NkvT-2" target="JIDkRxaZU-pqOcT1NkvT-3" edge="1">
                    <mxGeometry width="100" height="100" relative="1" as="geometry">
                        <mxPoint x="-189.99500000000023" y="314.98" as="sourcePoint"/>
                        <mxPoint x="-189.99500000000023" y="250" as="targetPoint"/>
                        <Array as="points">
                            <mxPoint x="-80" y="170"/>
                        </Array>
                    </mxGeometry>
                </mxCell>
                <mxCell id="JIDkRxaZU-pqOcT1NkvT-16" value="May have&lt;br&gt;Expansions" style="edgeLabel;html=1;align=center;verticalAlign=middle;resizable=0;points=[];" parent="JIDkRxaZU-pqOcT1NkvT-15" connectable="0" vertex="1">
                    <mxGeometry x="0.4259" y="-5" relative="1" as="geometry">
                        <mxPoint x="15" y="-40" as="offset"/>
                    </mxGeometry>
                </mxCell>
                <mxCell id="JIDkRxaZU-pqOcT1NkvT-17" value="Category" style="swimlane;fontStyle=0;childLayout=stackLayout;horizontal=1;startSize=26;horizontalStack=0;resizeParent=1;resizeParentMax=0;resizeLast=0;collapsible=1;marginBottom=0;swimlaneFillColor=#ffffff;align=center;strokeWidth=1;fontSize=13;fillColor=#FFE6CC;fontColor=#080808;" parent="JIDkRxaZU-pqOcT1NkvT-1" vertex="1">
                    <mxGeometry x="-370" y="50" width="170" height="56" as="geometry"/>
                </mxCell>
                <mxCell id="JIDkRxaZU-pqOcT1NkvT-18" value="name" style="shape=partialRectangle;top=0;left=0;right=0;bottom=1;align=left;verticalAlign=middle;spacingLeft=34;spacingRight=4;overflow=hidden;rotatable=0;points=[[0,0.5],[1,0.5]];portConstraint=eastwest;dropTarget=0;fontStyle=0;" parent="JIDkRxaZU-pqOcT1NkvT-17" vertex="1">
                    <mxGeometry y="26" width="170" height="30" as="geometry"/>
                </mxCell>
                <mxCell id="JIDkRxaZU-pqOcT1NkvT-19" value="PK" style="shape=partialRectangle;top=0;left=0;bottom=0;align=left;verticalAlign=middle;spacingLeft=4;spacingRight=4;overflow=hidden;rotatable=0;points=[];portConstraint=eastwest;part=1;fontStyle=0;" parent="JIDkRxaZU-pqOcT1NkvT-18" connectable="0" vertex="1">
                    <mxGeometry width="30" height="30" as="geometry"/>
                </mxCell>
                <mxCell id="JIDkRxaZU-pqOcT1NkvT-24" value="Mechanism" style="swimlane;fontStyle=0;childLayout=stackLayout;horizontal=1;startSize=26;horizontalStack=0;resizeParent=1;resizeParentMax=0;resizeLast=0;collapsible=1;marginBottom=0;swimlaneFillColor=#ffffff;align=center;strokeWidth=1;fontSize=13;fillColor=#FFE6CC;fontColor=#080808;" parent="JIDkRxaZU-pqOcT1NkvT-1" vertex="1">
                    <mxGeometry x="-370" y="170" width="170" height="56" as="geometry"/>
                </mxCell>
                <mxCell id="JIDkRxaZU-pqOcT1NkvT-25" value="name" style="shape=partialRectangle;top=0;left=0;right=0;bottom=1;align=left;verticalAlign=middle;spacingLeft=34;spacingRight=4;overflow=hidden;rotatable=0;points=[[0,0.5],[1,0.5]];portConstraint=eastwest;dropTarget=0;fontStyle=0;" parent="JIDkRxaZU-pqOcT1NkvT-24" vertex="1">
                    <mxGeometry y="26" width="170" height="30" as="geometry"/>
                </mxCell>
                <mxCell id="JIDkRxaZU-pqOcT1NkvT-26" value="PK" style="shape=partialRectangle;top=0;left=0;bottom=0;align=left;verticalAlign=middle;spacingLeft=4;spacingRight=4;overflow=hidden;rotatable=0;points=[];portConstraint=eastwest;part=1;fontStyle=0;" parent="JIDkRxaZU-pqOcT1NkvT-25" connectable="0" vertex="1">
                    <mxGeometry width="30" height="30" as="geometry"/>
                </mxCell>
                <mxCell id="JIDkRxaZU-pqOcT1NkvT-31" value="Tag" style="swimlane;fontStyle=0;childLayout=stackLayout;horizontal=1;startSize=26;horizontalStack=0;resizeParent=1;resizeParentMax=0;resizeLast=0;collapsible=1;marginBottom=0;swimlaneFillColor=#ffffff;align=center;strokeWidth=1;fontSize=13;fillColor=#FFE6CC;fontColor=#080808;" parent="JIDkRxaZU-pqOcT1NkvT-1" vertex="1">
                    <mxGeometry x="-370" y="290" width="170" height="56" as="geometry"/>
                </mxCell>
                <mxCell id="JIDkRxaZU-pqOcT1NkvT-32" value="name" style="shape=partialRectangle;top=0;left=0;right=0;bottom=1;align=left;verticalAlign=middle;spacingLeft=34;spacingRight=4;overflow=hidden;rotatable=0;points=[[0,0.5],[1,0.5]];portConstraint=eastwest;dropTarget=0;fontStyle=0;" parent="JIDkRxaZU-pqOcT1NkvT-31" vertex="1">
                    <mxGeometry y="26" width="170" height="30" as="geometry"/>
                </mxCell>
                <mxCell id="JIDkRxaZU-pqOcT1NkvT-33" value="PK" style="shape=partialRectangle;top=0;left=0;bottom=0;align=left;verticalAlign=middle;spacingLeft=4;spacingRight=4;overflow=hidden;rotatable=0;points=[];portConstraint=eastwest;part=1;fontStyle=0;" parent="JIDkRxaZU-pqOcT1NkvT-32" connectable="0" vertex="1">
                    <mxGeometry width="30" height="30" as="geometry"/>
                </mxCell>
                <mxCell id="JIDkRxaZU-pqOcT1NkvT-38" value="" style="edgeStyle=entityRelationEdgeStyle;fontSize=12;html=1;endArrow=ERoneToMany;startArrow=ERzeroToMany;rounded=0;entryX=1;entryY=0.5;entryDx=0;entryDy=0;exitX=0;exitY=0.5;exitDx=0;exitDy=0;" parent="JIDkRxaZU-pqOcT1NkvT-1" source="JIDkRxaZU-pqOcT1NkvT-18" target="JIDkRxaZU-pqOcT1NkvT-6" edge="1">
                    <mxGeometry width="100" height="100" relative="1" as="geometry">
                        <mxPoint x="-710" y="-50" as="sourcePoint"/>
                        <mxPoint x="-610" y="-150" as="targetPoint"/>
                    </mxGeometry>
                </mxCell>
                <mxCell id="JIDkRxaZU-pqOcT1NkvT-39" value="" style="edgeStyle=entityRelationEdgeStyle;fontSize=12;html=1;endArrow=ERoneToMany;startArrow=ERzeroToMany;rounded=0;entryX=1.017;entryY=0.013;entryDx=0;entryDy=0;exitX=0;exitY=0.5;exitDx=0;exitDy=0;entryPerimeter=0;" parent="JIDkRxaZU-pqOcT1NkvT-1" source="JIDkRxaZU-pqOcT1NkvT-25" target="JIDkRxaZU-pqOcT1NkvT-12" edge="1">
                    <mxGeometry width="100" height="100" relative="1" as="geometry">
                        <mxPoint x="-570" y="-184" as="sourcePoint"/>
                        <mxPoint x="-710" y="-95" as="targetPoint"/>
                    </mxGeometry>
                </mxCell>
                <mxCell id="JIDkRxaZU-pqOcT1NkvT-40" value="" style="edgeStyle=entityRelationEdgeStyle;fontSize=12;html=1;endArrow=ERoneToMany;startArrow=ERzeroToMany;rounded=0;entryX=1;entryY=0.5;entryDx=0;entryDy=0;exitX=0;exitY=0.5;exitDx=0;exitDy=0;" parent="JIDkRxaZU-pqOcT1NkvT-1" source="JIDkRxaZU-pqOcT1NkvT-32" target="rOWEKMxxm3YEzdJL4sGp-76" edge="1">
                    <mxGeometry width="100" height="100" relative="1" as="geometry">
                        <mxPoint x="-570" y="-51" as="sourcePoint"/>
                        <mxPoint x="-708.02" y="-58.960000000000036" as="targetPoint"/>
                    </mxGeometry>
                </mxCell>
                <mxCell id="IqkCULkvmE8JWoSRsGWp-0" value="Rating" style="shape=table;startSize=30;container=1;collapsible=1;childLayout=tableLayout;fixedRows=1;rowLines=0;fontStyle=0;align=center;resizeLast=1;fillColor=#ffe6cc;strokeColor=#FFFFFF;fontColor=#000000;gradientColor=none;strokeWidth=1;" parent="JIDkRxaZU-pqOcT1NkvT-1" vertex="1">
                    <mxGeometry x="-240" y="520" width="170" height="180" as="geometry">
                        <mxRectangle x="-520" y="400" width="70" height="30" as="alternateBounds"/>
                    </mxGeometry>
                </mxCell>
                <mxCell id="IqkCULkvmE8JWoSRsGWp-1" value="" style="shape=tableRow;horizontal=0;startSize=0;swimlaneHead=0;swimlaneBody=0;fillColor=none;collapsible=0;dropTarget=0;points=[[0,0.5],[1,0.5]];portConstraint=eastwest;top=0;left=0;right=0;bottom=1;" parent="IqkCULkvmE8JWoSRsGWp-0" vertex="1">
                    <mxGeometry y="30" width="170" height="30" as="geometry"/>
                </mxCell>
                <mxCell id="IqkCULkvmE8JWoSRsGWp-2" value="PK" style="shape=partialRectangle;connectable=0;fillColor=default;top=0;left=0;bottom=0;right=0;fontStyle=0;overflow=hidden;" parent="IqkCULkvmE8JWoSRsGWp-1" vertex="1">
                    <mxGeometry width="30" height="30" as="geometry">
                        <mxRectangle width="30" height="30" as="alternateBounds"/>
                    </mxGeometry>
                </mxCell>
                <mxCell id="IqkCULkvmE8JWoSRsGWp-3" value="rating_id" style="shape=partialRectangle;connectable=0;fillColor=default;top=0;left=0;bottom=0;right=0;align=left;spacingLeft=6;fontStyle=0;overflow=hidden;" parent="IqkCULkvmE8JWoSRsGWp-1" vertex="1">
                    <mxGeometry x="30" width="140" height="30" as="geometry">
                        <mxRectangle width="140" height="30" as="alternateBounds"/>
                    </mxGeometry>
                </mxCell>
                <mxCell id="IqkCULkvmE8JWoSRsGWp-4" value="" style="shape=tableRow;horizontal=0;startSize=0;swimlaneHead=0;swimlaneBody=0;fillColor=none;collapsible=0;dropTarget=0;points=[[0,0.5],[1,0.5]];portConstraint=eastwest;top=0;left=0;right=0;bottom=0;" parent="IqkCULkvmE8JWoSRsGWp-0" vertex="1">
                    <mxGeometry y="60" width="170" height="30" as="geometry"/>
                </mxCell>
                <mxCell id="IqkCULkvmE8JWoSRsGWp-5" value="EFK" style="shape=partialRectangle;connectable=0;fillColor=default;top=0;left=0;bottom=0;right=0;editable=1;overflow=hidden;" parent="IqkCULkvmE8JWoSRsGWp-4" vertex="1">
                    <mxGeometry width="30" height="30" as="geometry">
                        <mxRectangle width="30" height="30" as="alternateBounds"/>
                    </mxGeometry>
                </mxCell>
                <mxCell id="IqkCULkvmE8JWoSRsGWp-6" value="username" style="shape=partialRectangle;connectable=0;fillColor=default;top=0;left=0;bottom=0;right=0;align=left;spacingLeft=6;overflow=hidden;" parent="IqkCULkvmE8JWoSRsGWp-4" vertex="1">
                    <mxGeometry x="30" width="140" height="30" as="geometry">
                        <mxRectangle width="140" height="30" as="alternateBounds"/>
                    </mxGeometry>
                </mxCell>
                <mxCell id="IqkCULkvmE8JWoSRsGWp-33" style="shape=tableRow;horizontal=0;startSize=0;swimlaneHead=0;swimlaneBody=0;fillColor=none;collapsible=0;dropTarget=0;points=[[0,0.5],[1,0.5]];portConstraint=eastwest;top=0;left=0;right=0;bottom=0;" parent="IqkCULkvmE8JWoSRsGWp-0" vertex="1">
                    <mxGeometry y="90" width="170" height="30" as="geometry"/>
                </mxCell>
                <mxCell id="IqkCULkvmE8JWoSRsGWp-34" value="" style="shape=partialRectangle;connectable=0;fillColor=default;top=0;left=0;bottom=0;right=0;editable=1;overflow=hidden;" parent="IqkCULkvmE8JWoSRsGWp-33" vertex="1">
                    <mxGeometry width="30" height="30" as="geometry">
                        <mxRectangle width="30" height="30" as="alternateBounds"/>
                    </mxGeometry>
                </mxCell>
                <mxCell id="IqkCULkvmE8JWoSRsGWp-35" value="reference_namespace" style="shape=partialRectangle;connectable=0;fillColor=default;top=0;left=0;bottom=0;right=0;align=left;spacingLeft=6;overflow=hidden;" parent="IqkCULkvmE8JWoSRsGWp-33" vertex="1">
                    <mxGeometry x="30" width="140" height="30" as="geometry">
                        <mxRectangle width="140" height="30" as="alternateBounds"/>
                    </mxGeometry>
                </mxCell>
                <mxCell id="IqkCULkvmE8JWoSRsGWp-37" style="shape=tableRow;horizontal=0;startSize=0;swimlaneHead=0;swimlaneBody=0;fillColor=none;collapsible=0;dropTarget=0;points=[[0,0.5],[1,0.5]];portConstraint=eastwest;top=0;left=0;right=0;bottom=0;" parent="IqkCULkvmE8JWoSRsGWp-0" vertex="1">
                    <mxGeometry y="120" width="170" height="30" as="geometry"/>
                </mxCell>
                <mxCell id="IqkCULkvmE8JWoSRsGWp-38" value="EFK" style="shape=partialRectangle;connectable=0;fillColor=default;top=0;left=0;bottom=0;right=0;editable=1;overflow=hidden;" parent="IqkCULkvmE8JWoSRsGWp-37" vertex="1">
                    <mxGeometry width="30" height="30" as="geometry">
                        <mxRectangle width="30" height="30" as="alternateBounds"/>
                    </mxGeometry>
                </mxCell>
                <mxCell id="IqkCULkvmE8JWoSRsGWp-39" value="reference_id" style="shape=partialRectangle;connectable=0;fillColor=default;top=0;left=0;bottom=0;right=0;align=left;spacingLeft=6;overflow=hidden;" parent="IqkCULkvmE8JWoSRsGWp-37" vertex="1">
                    <mxGeometry x="30" width="140" height="30" as="geometry">
                        <mxRectangle width="140" height="30" as="alternateBounds"/>
                    </mxGeometry>
                </mxCell>
                <mxCell id="IqkCULkvmE8JWoSRsGWp-7" value="" style="shape=tableRow;horizontal=0;startSize=0;swimlaneHead=0;swimlaneBody=0;fillColor=none;collapsible=0;dropTarget=0;points=[[0,0.5],[1,0.5]];portConstraint=eastwest;top=0;left=0;right=0;bottom=0;" parent="IqkCULkvmE8JWoSRsGWp-0" vertex="1">
                    <mxGeometry y="150" width="170" height="30" as="geometry"/>
                </mxCell>
                <mxCell id="IqkCULkvmE8JWoSRsGWp-8" value="" style="shape=partialRectangle;connectable=0;fillColor=default;top=0;left=0;bottom=0;right=0;editable=1;overflow=hidden;" parent="IqkCULkvmE8JWoSRsGWp-7" vertex="1">
                    <mxGeometry width="30" height="30" as="geometry">
                        <mxRectangle width="30" height="30" as="alternateBounds"/>
                    </mxGeometry>
                </mxCell>
                <mxCell id="IqkCULkvmE8JWoSRsGWp-9" value="value" style="shape=partialRectangle;connectable=0;fillColor=default;top=0;left=0;bottom=0;right=0;align=left;spacingLeft=6;overflow=hidden;" parent="IqkCULkvmE8JWoSRsGWp-7" vertex="1">
                    <mxGeometry x="30" width="140" height="30" as="geometry">
                        <mxRectangle width="140" height="30" as="alternateBounds"/>
                    </mxGeometry>
                </mxCell>
                <mxCell id="IqkCULkvmE8JWoSRsGWp-11" value="Comment" style="shape=table;startSize=30;container=1;collapsible=1;childLayout=tableLayout;fixedRows=1;rowLines=0;fontStyle=0;align=center;resizeLast=1;fillColor=#ffe6cc;strokeColor=#FFFFFF;fontColor=#000000;gradientColor=none;strokeWidth=1;" parent="JIDkRxaZU-pqOcT1NkvT-1" vertex="1">
                    <mxGeometry x="-520" y="520" width="170" height="240" as="geometry">
                        <mxRectangle x="-520" y="400" width="70" height="30" as="alternateBounds"/>
                    </mxGeometry>
                </mxCell>
                <mxCell id="IqkCULkvmE8JWoSRsGWp-12" value="" style="shape=tableRow;horizontal=0;startSize=0;swimlaneHead=0;swimlaneBody=0;fillColor=none;collapsible=0;dropTarget=0;points=[[0,0.5],[1,0.5]];portConstraint=eastwest;top=0;left=0;right=0;bottom=1;" parent="IqkCULkvmE8JWoSRsGWp-11" vertex="1">
                    <mxGeometry y="30" width="170" height="30" as="geometry"/>
                </mxCell>
                <mxCell id="IqkCULkvmE8JWoSRsGWp-13" value="PK" style="shape=partialRectangle;connectable=0;fillColor=default;top=0;left=0;bottom=0;right=0;fontStyle=0;overflow=hidden;" parent="IqkCULkvmE8JWoSRsGWp-12" vertex="1">
                    <mxGeometry width="30" height="30" as="geometry">
                        <mxRectangle width="30" height="30" as="alternateBounds"/>
                    </mxGeometry>
                </mxCell>
                <mxCell id="IqkCULkvmE8JWoSRsGWp-14" value="comment_id" style="shape=partialRectangle;connectable=0;fillColor=default;top=0;left=0;bottom=0;right=0;align=left;spacingLeft=6;fontStyle=0;overflow=hidden;" parent="IqkCULkvmE8JWoSRsGWp-12" vertex="1">
                    <mxGeometry x="30" width="140" height="30" as="geometry">
                        <mxRectangle width="140" height="30" as="alternateBounds"/>
                    </mxGeometry>
                </mxCell>
                <mxCell id="IqkCULkvmE8JWoSRsGWp-15" value="" style="shape=tableRow;horizontal=0;startSize=0;swimlaneHead=0;swimlaneBody=0;fillColor=none;collapsible=0;dropTarget=0;points=[[0,0.5],[1,0.5]];portConstraint=eastwest;top=0;left=0;right=0;bottom=0;" parent="IqkCULkvmE8JWoSRsGWp-11" vertex="1">
                    <mxGeometry y="60" width="170" height="30" as="geometry"/>
                </mxCell>
                <mxCell id="IqkCULkvmE8JWoSRsGWp-16" value="EFK" style="shape=partialRectangle;connectable=0;fillColor=default;top=0;left=0;bottom=0;right=0;editable=1;overflow=hidden;" parent="IqkCULkvmE8JWoSRsGWp-15" vertex="1">
                    <mxGeometry width="30" height="30" as="geometry">
                        <mxRectangle width="30" height="30" as="alternateBounds"/>
                    </mxGeometry>
                </mxCell>
                <mxCell id="IqkCULkvmE8JWoSRsGWp-17" value="username" style="shape=partialRectangle;connectable=0;fillColor=default;top=0;left=0;bottom=0;right=0;align=left;spacingLeft=6;overflow=hidden;" parent="IqkCULkvmE8JWoSRsGWp-15" vertex="1">
                    <mxGeometry x="30" width="140" height="30" as="geometry">
                        <mxRectangle width="140" height="30" as="alternateBounds"/>
                    </mxGeometry>
                </mxCell>
                <mxCell id="IqkCULkvmE8JWoSRsGWp-43" style="shape=tableRow;horizontal=0;startSize=0;swimlaneHead=0;swimlaneBody=0;fillColor=none;collapsible=0;dropTarget=0;points=[[0,0.5],[1,0.5]];portConstraint=eastwest;top=0;left=0;right=0;bottom=0;" parent="IqkCULkvmE8JWoSRsGWp-11" vertex="1">
                    <mxGeometry y="90" width="170" height="30" as="geometry"/>
                </mxCell>
                <mxCell id="IqkCULkvmE8JWoSRsGWp-44" style="shape=partialRectangle;connectable=0;fillColor=default;top=0;left=0;bottom=0;right=0;editable=1;overflow=hidden;" parent="IqkCULkvmE8JWoSRsGWp-43" vertex="1">
                    <mxGeometry width="30" height="30" as="geometry">
                        <mxRectangle width="30" height="30" as="alternateBounds"/>
                    </mxGeometry>
                </mxCell>
                <mxCell id="IqkCULkvmE8JWoSRsGWp-45" value="reference_namespace" style="shape=partialRectangle;connectable=0;fillColor=default;top=0;left=0;bottom=0;right=0;align=left;spacingLeft=6;overflow=hidden;" parent="IqkCULkvmE8JWoSRsGWp-43" vertex="1">
                    <mxGeometry x="30" width="140" height="30" as="geometry">
                        <mxRectangle width="140" height="30" as="alternateBounds"/>
                    </mxGeometry>
                </mxCell>
                <mxCell id="IqkCULkvmE8JWoSRsGWp-40" style="shape=tableRow;horizontal=0;startSize=0;swimlaneHead=0;swimlaneBody=0;fillColor=none;collapsible=0;dropTarget=0;points=[[0,0.5],[1,0.5]];portConstraint=eastwest;top=0;left=0;right=0;bottom=0;" parent="IqkCULkvmE8JWoSRsGWp-11" vertex="1">
                    <mxGeometry y="120" width="170" height="30" as="geometry"/>
                </mxCell>
                <mxCell id="IqkCULkvmE8JWoSRsGWp-41" value="EFK" style="shape=partialRectangle;connectable=0;fillColor=default;top=0;left=0;bottom=0;right=0;editable=1;overflow=hidden;" parent="IqkCULkvmE8JWoSRsGWp-40" vertex="1">
                    <mxGeometry width="30" height="30" as="geometry">
                        <mxRectangle width="30" height="30" as="alternateBounds"/>
                    </mxGeometry>
                </mxCell>
                <mxCell id="IqkCULkvmE8JWoSRsGWp-42" value="reference_id" style="shape=partialRectangle;connectable=0;fillColor=default;top=0;left=0;bottom=0;right=0;align=left;spacingLeft=6;overflow=hidden;" parent="IqkCULkvmE8JWoSRsGWp-40" vertex="1">
                    <mxGeometry x="30" width="140" height="30" as="geometry">
                        <mxRectangle width="140" height="30" as="alternateBounds"/>
                    </mxGeometry>
                </mxCell>
                <mxCell id="IqkCULkvmE8JWoSRsGWp-18" value="" style="shape=tableRow;horizontal=0;startSize=0;swimlaneHead=0;swimlaneBody=0;fillColor=none;collapsible=0;dropTarget=0;points=[[0,0.5],[1,0.5]];portConstraint=eastwest;top=0;left=0;right=0;bottom=0;" parent="IqkCULkvmE8JWoSRsGWp-11" vertex="1">
                    <mxGeometry y="150" width="170" height="30" as="geometry"/>
                </mxCell>
                <mxCell id="IqkCULkvmE8JWoSRsGWp-19" value="" style="shape=partialRectangle;connectable=0;fillColor=default;top=0;left=0;bottom=0;right=0;editable=1;overflow=hidden;" parent="IqkCULkvmE8JWoSRsGWp-18" vertex="1">
                    <mxGeometry width="30" height="30" as="geometry">
                        <mxRectangle width="30" height="30" as="alternateBounds"/>
                    </mxGeometry>
                </mxCell>
                <mxCell id="IqkCULkvmE8JWoSRsGWp-20" value="content" style="shape=partialRectangle;connectable=0;fillColor=default;top=0;left=0;bottom=0;right=0;align=left;spacingLeft=6;overflow=hidden;" parent="IqkCULkvmE8JWoSRsGWp-18" vertex="1">
                    <mxGeometry x="30" width="140" height="30" as="geometry">
                        <mxRectangle width="140" height="30" as="alternateBounds"/>
                    </mxGeometry>
                </mxCell>
                <mxCell id="IqkCULkvmE8JWoSRsGWp-21" style="shape=tableRow;horizontal=0;startSize=0;swimlaneHead=0;swimlaneBody=0;fillColor=none;collapsible=0;dropTarget=0;points=[[0,0.5],[1,0.5]];portConstraint=eastwest;top=0;left=0;right=0;bottom=0;" parent="IqkCULkvmE8JWoSRsGWp-11" vertex="1">
                    <mxGeometry y="180" width="170" height="30" as="geometry"/>
                </mxCell>
                <mxCell id="IqkCULkvmE8JWoSRsGWp-22" value="    " style="shape=partialRectangle;connectable=0;fillColor=default;top=0;left=0;bottom=0;right=0;editable=1;overflow=hidden;" parent="IqkCULkvmE8JWoSRsGWp-21" vertex="1">
                    <mxGeometry width="30" height="30" as="geometry">
                        <mxRectangle width="30" height="30" as="alternateBounds"/>
                    </mxGeometry>
                </mxCell>
                <mxCell id="IqkCULkvmE8JWoSRsGWp-23" value="date" style="shape=partialRectangle;connectable=0;fillColor=default;top=0;left=0;bottom=0;right=0;align=left;spacingLeft=6;overflow=hidden;" parent="IqkCULkvmE8JWoSRsGWp-21" vertex="1">
                    <mxGeometry x="30" width="140" height="30" as="geometry">
                        <mxRectangle width="140" height="30" as="alternateBounds"/>
                    </mxGeometry>
                </mxCell>
                <mxCell id="IqkCULkvmE8JWoSRsGWp-24" style="shape=tableRow;horizontal=0;startSize=0;swimlaneHead=0;swimlaneBody=0;fillColor=none;collapsible=0;dropTarget=0;points=[[0,0.5],[1,0.5]];portConstraint=eastwest;top=0;left=0;right=0;bottom=0;" parent="IqkCULkvmE8JWoSRsGWp-11" vertex="1">
                    <mxGeometry y="210" width="170" height="30" as="geometry"/>
                </mxCell>
                <mxCell id="IqkCULkvmE8JWoSRsGWp-25" value="FK" style="shape=partialRectangle;connectable=0;fillColor=default;top=0;left=0;bottom=0;right=0;editable=1;overflow=hidden;" parent="IqkCULkvmE8JWoSRsGWp-24" vertex="1">
                    <mxGeometry width="30" height="30" as="geometry">
                        <mxRectangle width="30" height="30" as="alternateBounds"/>
                    </mxGeometry>
                </mxCell>
                <mxCell id="IqkCULkvmE8JWoSRsGWp-26" value="parent_comment_id" style="shape=partialRectangle;connectable=0;fillColor=default;top=0;left=0;bottom=0;right=0;align=left;spacingLeft=6;overflow=hidden;" parent="IqkCULkvmE8JWoSRsGWp-24" vertex="1">
                    <mxGeometry x="30" width="140" height="30" as="geometry">
                        <mxRectangle width="140" height="30" as="alternateBounds"/>
                    </mxGeometry>
                </mxCell>
                <mxCell id="IqkCULkvmE8JWoSRsGWp-27" value="" style="edgeStyle=entityRelationEdgeStyle;fontSize=12;html=1;endArrow=ERzeroToMany;startArrow=ERmandOne;rounded=0;entryX=1;entryY=0.067;entryDx=0;entryDy=0;exitX=1;exitY=0.5;exitDx=0;exitDy=0;entryPerimeter=0;" parent="IqkCULkvmE8JWoSRsGWp-11" source="IqkCULkvmE8JWoSRsGWp-12" target="IqkCULkvmE8JWoSRsGWp-11" edge="1">
                    <mxGeometry width="100" height="100" relative="1" as="geometry">
                        <mxPoint x="-10" y="170" as="sourcePoint"/>
                        <mxPoint x="-10" y="215" as="targetPoint"/>
                        <Array as="points">
                            <mxPoint x="150" y="-30"/>
                        </Array>
                    </mxGeometry>
                </mxCell>
                <mxCell id="IqkCULkvmE8JWoSRsGWp-28" value="May Have &lt;br&gt;Replies" style="edgeLabel;html=1;align=center;verticalAlign=middle;resizable=0;points=[];" parent="IqkCULkvmE8JWoSRsGWp-27" connectable="0" vertex="1">
                    <mxGeometry x="0.4259" y="-5" relative="1" as="geometry">
                        <mxPoint x="15" y="25" as="offset"/>
                    </mxGeometry>
                </mxCell>
                <mxCell id="IqkCULkvmE8JWoSRsGWp-36" value="&lt;h1&gt;Explanation&lt;/h1&gt;&lt;p&gt;Ratings/Comments have&amp;nbsp; to refer to something in an abstracted way in the architecture&lt;br&gt;&lt;br&gt;Solution: Reference Namespace and Reference Id&lt;br&gt;&lt;br&gt;&lt;/p&gt;&lt;p&gt;Explanation:&amp;nbsp;&lt;span&gt;The namespace represents what type of object is being rated and t&lt;/span&gt;&lt;span&gt;he Id is a reference to the UUID of that object in the architecture (All BGs, comments, rates, wtv have a UUID)&lt;/span&gt;&lt;/p&gt;&lt;p&gt;&lt;br&gt;Examples: &lt;br&gt;Boardgame - 1&lt;br&gt;Comment - 2&lt;br&gt;Forum Post - 3&lt;br&gt;&lt;br&gt;&lt;br&gt;&lt;br&gt;&lt;br&gt;&lt;/p&gt;&lt;p&gt;&lt;br&gt;&lt;br&gt;&lt;/p&gt;" style="text;html=1;strokeColor=none;fillColor=none;spacing=5;spacingTop=-20;whiteSpace=wrap;overflow=hidden;rounded=0;fontColor=#FFFFFF;" parent="JIDkRxaZU-pqOcT1NkvT-1" vertex="1">
                    <mxGeometry x="-810" y="1160" width="600" height="340" as="geometry"/>
                </mxCell>
                <mxCell id="VSKSTIOnhYWTTon6H997-0" value="Offer" style="shape=table;startSize=30;container=1;collapsible=1;childLayout=tableLayout;fixedRows=1;rowLines=0;fontStyle=0;align=center;resizeLast=1;fillColor=#ffe6cc;strokeColor=#FFFFFF;fontColor=#000000;gradientColor=none;strokeWidth=1;" parent="JIDkRxaZU-pqOcT1NkvT-1" vertex="1">
                    <mxGeometry x="-800" y="520" width="170" height="210" as="geometry">
                        <mxRectangle x="-520" y="400" width="70" height="30" as="alternateBounds"/>
                    </mxGeometry>
                </mxCell>
                <mxCell id="VSKSTIOnhYWTTon6H997-1" value="" style="shape=tableRow;horizontal=0;startSize=0;swimlaneHead=0;swimlaneBody=0;fillColor=none;collapsible=0;dropTarget=0;points=[[0,0.5],[1,0.5]];portConstraint=eastwest;top=0;left=0;right=0;bottom=1;" parent="VSKSTIOnhYWTTon6H997-0" vertex="1">
                    <mxGeometry y="30" width="170" height="30" as="geometry"/>
                </mxCell>
                <mxCell id="VSKSTIOnhYWTTon6H997-2" value="PK" style="shape=partialRectangle;connectable=0;fillColor=default;top=0;left=0;bottom=0;right=0;fontStyle=0;overflow=hidden;" parent="VSKSTIOnhYWTTon6H997-1" vertex="1">
                    <mxGeometry width="30" height="30" as="geometry">
                        <mxRectangle width="30" height="30" as="alternateBounds"/>
                    </mxGeometry>
                </mxCell>
                <mxCell id="VSKSTIOnhYWTTon6H997-3" value="offer_id" style="shape=partialRectangle;connectable=0;fillColor=default;top=0;left=0;bottom=0;right=0;align=left;spacingLeft=6;fontStyle=0;overflow=hidden;" parent="VSKSTIOnhYWTTon6H997-1" vertex="1">
                    <mxGeometry x="30" width="140" height="30" as="geometry">
                        <mxRectangle width="140" height="30" as="alternateBounds"/>
                    </mxGeometry>
                </mxCell>
                <mxCell id="VSKSTIOnhYWTTon6H997-4" value="" style="shape=tableRow;horizontal=0;startSize=0;swimlaneHead=0;swimlaneBody=0;fillColor=none;collapsible=0;dropTarget=0;points=[[0,0.5],[1,0.5]];portConstraint=eastwest;top=0;left=0;right=0;bottom=0;" parent="VSKSTIOnhYWTTon6H997-0" vertex="1">
                    <mxGeometry y="60" width="170" height="30" as="geometry"/>
                </mxCell>
                <mxCell id="VSKSTIOnhYWTTon6H997-5" value="EFK" style="shape=partialRectangle;connectable=0;fillColor=default;top=0;left=0;bottom=0;right=0;editable=1;overflow=hidden;" parent="VSKSTIOnhYWTTon6H997-4" vertex="1">
                    <mxGeometry width="30" height="30" as="geometry">
                        <mxRectangle width="30" height="30" as="alternateBounds"/>
                    </mxGeometry>
                </mxCell>
                <mxCell id="VSKSTIOnhYWTTon6H997-6" value="username" style="shape=partialRectangle;connectable=0;fillColor=default;top=0;left=0;bottom=0;right=0;align=left;spacingLeft=6;overflow=hidden;" parent="VSKSTIOnhYWTTon6H997-4" vertex="1">
                    <mxGeometry x="30" width="140" height="30" as="geometry">
                        <mxRectangle width="140" height="30" as="alternateBounds"/>
                    </mxGeometry>
                </mxCell>
                <mxCell id="VSKSTIOnhYWTTon6H997-7" style="shape=tableRow;horizontal=0;startSize=0;swimlaneHead=0;swimlaneBody=0;fillColor=none;collapsible=0;dropTarget=0;points=[[0,0.5],[1,0.5]];portConstraint=eastwest;top=0;left=0;right=0;bottom=0;" parent="VSKSTIOnhYWTTon6H997-0" vertex="1">
                    <mxGeometry y="90" width="170" height="30" as="geometry"/>
                </mxCell>
                <mxCell id="VSKSTIOnhYWTTon6H997-8" value="" style="shape=partialRectangle;connectable=0;fillColor=default;top=0;left=0;bottom=0;right=0;editable=1;overflow=hidden;" parent="VSKSTIOnhYWTTon6H997-7" vertex="1">
                    <mxGeometry width="30" height="30" as="geometry">
                        <mxRectangle width="30" height="30" as="alternateBounds"/>
                    </mxGeometry>
                </mxCell>
                <mxCell id="VSKSTIOnhYWTTon6H997-9" value="reference_product" style="shape=partialRectangle;connectable=0;fillColor=default;top=0;left=0;bottom=0;right=0;align=left;spacingLeft=6;overflow=hidden;" parent="VSKSTIOnhYWTTon6H997-7" vertex="1">
                    <mxGeometry x="30" width="140" height="30" as="geometry">
                        <mxRectangle width="140" height="30" as="alternateBounds"/>
                    </mxGeometry>
                </mxCell>
                <mxCell id="VSKSTIOnhYWTTon6H997-10" style="shape=tableRow;horizontal=0;startSize=0;swimlaneHead=0;swimlaneBody=0;fillColor=none;collapsible=0;dropTarget=0;points=[[0,0.5],[1,0.5]];portConstraint=eastwest;top=0;left=0;right=0;bottom=0;" parent="VSKSTIOnhYWTTon6H997-0" vertex="1">
                    <mxGeometry y="120" width="170" height="30" as="geometry"/>
                </mxCell>
                <mxCell id="VSKSTIOnhYWTTon6H997-11" value="EFK" style="shape=partialRectangle;connectable=0;fillColor=default;top=0;left=0;bottom=0;right=0;editable=1;overflow=hidden;" parent="VSKSTIOnhYWTTon6H997-10" vertex="1">
                    <mxGeometry width="30" height="30" as="geometry">
                        <mxRectangle width="30" height="30" as="alternateBounds"/>
                    </mxGeometry>
                </mxCell>
                <mxCell id="VSKSTIOnhYWTTon6H997-12" value="reference_id" style="shape=partialRectangle;connectable=0;fillColor=default;top=0;left=0;bottom=0;right=0;align=left;spacingLeft=6;overflow=hidden;" parent="VSKSTIOnhYWTTon6H997-10" vertex="1">
                    <mxGeometry x="30" width="140" height="30" as="geometry">
                        <mxRectangle width="140" height="30" as="alternateBounds"/>
                    </mxGeometry>
                </mxCell>
                <mxCell id="VSKSTIOnhYWTTon6H997-13" value="" style="shape=tableRow;horizontal=0;startSize=0;swimlaneHead=0;swimlaneBody=0;fillColor=none;collapsible=0;dropTarget=0;points=[[0,0.5],[1,0.5]];portConstraint=eastwest;top=0;left=0;right=0;bottom=0;" parent="VSKSTIOnhYWTTon6H997-0" vertex="1">
                    <mxGeometry y="150" width="170" height="30" as="geometry"/>
                </mxCell>
                <mxCell id="VSKSTIOnhYWTTon6H997-14" value="" style="shape=partialRectangle;connectable=0;fillColor=default;top=0;left=0;bottom=0;right=0;editable=1;overflow=hidden;" parent="VSKSTIOnhYWTTon6H997-13" vertex="1">
                    <mxGeometry width="30" height="30" as="geometry">
                        <mxRectangle width="30" height="30" as="alternateBounds"/>
                    </mxGeometry>
                </mxCell>
                <mxCell id="VSKSTIOnhYWTTon6H997-15" value="price" style="shape=partialRectangle;connectable=0;fillColor=default;top=0;left=0;bottom=0;right=0;align=left;spacingLeft=6;overflow=hidden;" parent="VSKSTIOnhYWTTon6H997-13" vertex="1">
                    <mxGeometry x="30" width="140" height="30" as="geometry">
                        <mxRectangle width="140" height="30" as="alternateBounds"/>
                    </mxGeometry>
                </mxCell>
                <mxCell id="VSKSTIOnhYWTTon6H997-16" style="shape=tableRow;horizontal=0;startSize=0;swimlaneHead=0;swimlaneBody=0;fillColor=none;collapsible=0;dropTarget=0;points=[[0,0.5],[1,0.5]];portConstraint=eastwest;top=0;left=0;right=0;bottom=0;" parent="VSKSTIOnhYWTTon6H997-0" vertex="1">
                    <mxGeometry y="180" width="170" height="30" as="geometry"/>
                </mxCell>
                <mxCell id="VSKSTIOnhYWTTon6H997-17" style="shape=partialRectangle;connectable=0;fillColor=default;top=0;left=0;bottom=0;right=0;editable=1;overflow=hidden;" parent="VSKSTIOnhYWTTon6H997-16" vertex="1">
                    <mxGeometry width="30" height="30" as="geometry">
                        <mxRectangle width="30" height="30" as="alternateBounds"/>
                    </mxGeometry>
                </mxCell>
                <mxCell id="VSKSTIOnhYWTTon6H997-18" value="description" style="shape=partialRectangle;connectable=0;fillColor=default;top=0;left=0;bottom=0;right=0;align=left;spacingLeft=6;overflow=hidden;" parent="VSKSTIOnhYWTTon6H997-16" vertex="1">
                    <mxGeometry x="30" width="140" height="30" as="geometry">
                        <mxRectangle width="140" height="30" as="alternateBounds"/>
                    </mxGeometry>
                </mxCell>
                <mxCell id="VSKSTIOnhYWTTon6H997-57" value="" style="edgeStyle=none;html=1;endArrow=ERzeroToMany;endFill=0;startArrow=ERone;startFill=0;" parent="JIDkRxaZU-pqOcT1NkvT-1" source="VSKSTIOnhYWTTon6H997-19" target="VSKSTIOnhYWTTon6H997-38" edge="1">
                    <mxGeometry relative="1" as="geometry"/>
                </mxCell>
                <mxCell id="VSKSTIOnhYWTTon6H997-19" value="List" style="shape=table;startSize=30;container=1;collapsible=1;childLayout=tableLayout;fixedRows=1;rowLines=0;fontStyle=0;align=center;resizeLast=1;fillColor=#ffe6cc;strokeColor=#FFFFFF;fontColor=#000000;gradientColor=none;strokeWidth=1;" parent="JIDkRxaZU-pqOcT1NkvT-1" vertex="1">
                    <mxGeometry x="-800" y="890" width="170" height="150" as="geometry">
                        <mxRectangle x="-520" y="400" width="70" height="30" as="alternateBounds"/>
                    </mxGeometry>
                </mxCell>
                <mxCell id="VSKSTIOnhYWTTon6H997-20" value="" style="shape=tableRow;horizontal=0;startSize=0;swimlaneHead=0;swimlaneBody=0;fillColor=none;collapsible=0;dropTarget=0;points=[[0,0.5],[1,0.5]];portConstraint=eastwest;top=0;left=0;right=0;bottom=1;" parent="VSKSTIOnhYWTTon6H997-19" vertex="1">
                    <mxGeometry y="30" width="170" height="30" as="geometry"/>
                </mxCell>
                <mxCell id="VSKSTIOnhYWTTon6H997-21" value="PK" style="shape=partialRectangle;connectable=0;fillColor=default;top=0;left=0;bottom=0;right=0;fontStyle=0;overflow=hidden;" parent="VSKSTIOnhYWTTon6H997-20" vertex="1">
                    <mxGeometry width="30" height="30" as="geometry">
                        <mxRectangle width="30" height="30" as="alternateBounds"/>
                    </mxGeometry>
                </mxCell>
                <mxCell id="VSKSTIOnhYWTTon6H997-22" value="list_id" style="shape=partialRectangle;connectable=0;fillColor=default;top=0;left=0;bottom=0;right=0;align=left;spacingLeft=6;fontStyle=0;overflow=hidden;" parent="VSKSTIOnhYWTTon6H997-20" vertex="1">
                    <mxGeometry x="30" width="140" height="30" as="geometry">
                        <mxRectangle width="140" height="30" as="alternateBounds"/>
                    </mxGeometry>
                </mxCell>
                <mxCell id="VSKSTIOnhYWTTon6H997-23" value="" style="shape=tableRow;horizontal=0;startSize=0;swimlaneHead=0;swimlaneBody=0;fillColor=none;collapsible=0;dropTarget=0;points=[[0,0.5],[1,0.5]];portConstraint=eastwest;top=0;left=0;right=0;bottom=0;" parent="VSKSTIOnhYWTTon6H997-19" vertex="1">
                    <mxGeometry y="60" width="170" height="30" as="geometry"/>
                </mxCell>
                <mxCell id="VSKSTIOnhYWTTon6H997-24" value="EFK" style="shape=partialRectangle;connectable=0;fillColor=default;top=0;left=0;bottom=0;right=0;editable=1;overflow=hidden;" parent="VSKSTIOnhYWTTon6H997-23" vertex="1">
                    <mxGeometry width="30" height="30" as="geometry">
                        <mxRectangle width="30" height="30" as="alternateBounds"/>
                    </mxGeometry>
                </mxCell>
                <mxCell id="VSKSTIOnhYWTTon6H997-25" value="username" style="shape=partialRectangle;connectable=0;fillColor=default;top=0;left=0;bottom=0;right=0;align=left;spacingLeft=6;overflow=hidden;" parent="VSKSTIOnhYWTTon6H997-23" vertex="1">
                    <mxGeometry x="30" width="140" height="30" as="geometry">
                        <mxRectangle width="140" height="30" as="alternateBounds"/>
                    </mxGeometry>
                </mxCell>
                <mxCell id="VSKSTIOnhYWTTon6H997-26" style="shape=tableRow;horizontal=0;startSize=0;swimlaneHead=0;swimlaneBody=0;fillColor=none;collapsible=0;dropTarget=0;points=[[0,0.5],[1,0.5]];portConstraint=eastwest;top=0;left=0;right=0;bottom=0;" parent="VSKSTIOnhYWTTon6H997-19" vertex="1">
                    <mxGeometry y="90" width="170" height="30" as="geometry"/>
                </mxCell>
                <mxCell id="VSKSTIOnhYWTTon6H997-27" value="" style="shape=partialRectangle;connectable=0;fillColor=default;top=0;left=0;bottom=0;right=0;editable=1;overflow=hidden;" parent="VSKSTIOnhYWTTon6H997-26" vertex="1">
                    <mxGeometry width="30" height="30" as="geometry">
                        <mxRectangle width="30" height="30" as="alternateBounds"/>
                    </mxGeometry>
                </mxCell>
                <mxCell id="VSKSTIOnhYWTTon6H997-28" value="type" style="shape=partialRectangle;connectable=0;fillColor=default;top=0;left=0;bottom=0;right=0;align=left;spacingLeft=6;overflow=hidden;" parent="VSKSTIOnhYWTTon6H997-26" vertex="1">
                    <mxGeometry x="30" width="140" height="30" as="geometry">
                        <mxRectangle width="140" height="30" as="alternateBounds"/>
                    </mxGeometry>
                </mxCell>
                <mxCell id="VSKSTIOnhYWTTon6H997-35" style="shape=tableRow;horizontal=0;startSize=0;swimlaneHead=0;swimlaneBody=0;fillColor=none;collapsible=0;dropTarget=0;points=[[0,0.5],[1,0.5]];portConstraint=eastwest;top=0;left=0;right=0;bottom=0;" parent="VSKSTIOnhYWTTon6H997-19" vertex="1">
                    <mxGeometry y="120" width="170" height="30" as="geometry"/>
                </mxCell>
                <mxCell id="VSKSTIOnhYWTTon6H997-36" style="shape=partialRectangle;connectable=0;fillColor=default;top=0;left=0;bottom=0;right=0;editable=1;overflow=hidden;" parent="VSKSTIOnhYWTTon6H997-35" vertex="1">
                    <mxGeometry width="30" height="30" as="geometry">
                        <mxRectangle width="30" height="30" as="alternateBounds"/>
                    </mxGeometry>
                </mxCell>
                <mxCell id="VSKSTIOnhYWTTon6H997-37" value="description" style="shape=partialRectangle;connectable=0;fillColor=default;top=0;left=0;bottom=0;right=0;align=left;spacingLeft=6;overflow=hidden;" parent="VSKSTIOnhYWTTon6H997-35" vertex="1">
                    <mxGeometry x="30" width="140" height="30" as="geometry">
                        <mxRectangle width="140" height="30" as="alternateBounds"/>
                    </mxGeometry>
                </mxCell>
                <mxCell id="VSKSTIOnhYWTTon6H997-38" value="ListObject" style="shape=table;startSize=30;container=1;collapsible=1;childLayout=tableLayout;fixedRows=1;rowLines=0;fontStyle=0;align=center;resizeLast=1;fillColor=#ffe6cc;strokeColor=#FFFFFF;fontColor=#000000;gradientColor=none;strokeWidth=1;" parent="JIDkRxaZU-pqOcT1NkvT-1" vertex="1">
                    <mxGeometry x="-550" y="905" width="170" height="120" as="geometry">
                        <mxRectangle x="-520" y="400" width="70" height="30" as="alternateBounds"/>
                    </mxGeometry>
                </mxCell>
                <mxCell id="VSKSTIOnhYWTTon6H997-39" value="" style="shape=tableRow;horizontal=0;startSize=0;swimlaneHead=0;swimlaneBody=0;fillColor=none;collapsible=0;dropTarget=0;points=[[0,0.5],[1,0.5]];portConstraint=eastwest;top=0;left=0;right=0;bottom=1;" parent="VSKSTIOnhYWTTon6H997-38" vertex="1">
                    <mxGeometry y="30" width="170" height="30" as="geometry"/>
                </mxCell>
                <mxCell id="VSKSTIOnhYWTTon6H997-40" value="PK" style="shape=partialRectangle;connectable=0;fillColor=default;top=0;left=0;bottom=0;right=0;fontStyle=0;overflow=hidden;" parent="VSKSTIOnhYWTTon6H997-39" vertex="1">
                    <mxGeometry width="30" height="30" as="geometry">
                        <mxRectangle width="30" height="30" as="alternateBounds"/>
                    </mxGeometry>
                </mxCell>
                <mxCell id="VSKSTIOnhYWTTon6H997-41" value="list_object_id" style="shape=partialRectangle;connectable=0;fillColor=default;top=0;left=0;bottom=0;right=0;align=left;spacingLeft=6;fontStyle=0;overflow=hidden;" parent="VSKSTIOnhYWTTon6H997-39" vertex="1">
                    <mxGeometry x="30" width="140" height="30" as="geometry">
                        <mxRectangle width="140" height="30" as="alternateBounds"/>
                    </mxGeometry>
                </mxCell>
                <mxCell id="VSKSTIOnhYWTTon6H997-42" value="" style="shape=tableRow;horizontal=0;startSize=0;swimlaneHead=0;swimlaneBody=0;fillColor=none;collapsible=0;dropTarget=0;points=[[0,0.5],[1,0.5]];portConstraint=eastwest;top=0;left=0;right=0;bottom=0;" parent="VSKSTIOnhYWTTon6H997-38" vertex="1">
                    <mxGeometry y="60" width="170" height="30" as="geometry"/>
                </mxCell>
                <mxCell id="VSKSTIOnhYWTTon6H997-43" value="" style="shape=partialRectangle;connectable=0;fillColor=default;top=0;left=0;bottom=0;right=0;editable=1;overflow=hidden;" parent="VSKSTIOnhYWTTon6H997-42" vertex="1">
                    <mxGeometry width="30" height="30" as="geometry">
                        <mxRectangle width="30" height="30" as="alternateBounds"/>
                    </mxGeometry>
                </mxCell>
                <mxCell id="VSKSTIOnhYWTTon6H997-44" value="reference_product" style="shape=partialRectangle;connectable=0;fillColor=default;top=0;left=0;bottom=0;right=0;align=left;spacingLeft=6;overflow=hidden;" parent="VSKSTIOnhYWTTon6H997-42" vertex="1">
                    <mxGeometry x="30" width="140" height="30" as="geometry">
                        <mxRectangle width="140" height="30" as="alternateBounds"/>
                    </mxGeometry>
                </mxCell>
                <mxCell id="VSKSTIOnhYWTTon6H997-58" style="shape=tableRow;horizontal=0;startSize=0;swimlaneHead=0;swimlaneBody=0;fillColor=none;collapsible=0;dropTarget=0;points=[[0,0.5],[1,0.5]];portConstraint=eastwest;top=0;left=0;right=0;bottom=0;" parent="VSKSTIOnhYWTTon6H997-38" vertex="1">
                    <mxGeometry y="90" width="170" height="30" as="geometry"/>
                </mxCell>
                <mxCell id="VSKSTIOnhYWTTon6H997-59" value="EFK" style="shape=partialRectangle;connectable=0;fillColor=default;top=0;left=0;bottom=0;right=0;editable=1;overflow=hidden;" parent="VSKSTIOnhYWTTon6H997-58" vertex="1">
                    <mxGeometry width="30" height="30" as="geometry">
                        <mxRectangle width="30" height="30" as="alternateBounds"/>
                    </mxGeometry>
                </mxCell>
                <mxCell id="VSKSTIOnhYWTTon6H997-60" value="reference_id" style="shape=partialRectangle;connectable=0;fillColor=default;top=0;left=0;bottom=0;right=0;align=left;spacingLeft=6;overflow=hidden;" parent="VSKSTIOnhYWTTon6H997-58" vertex="1">
                    <mxGeometry x="30" width="140" height="30" as="geometry">
                        <mxRectangle width="140" height="30" as="alternateBounds"/>
                    </mxGeometry>
                </mxCell>
                <mxCell id="9dKErNAijt5KgHU88vmQ-0" value="Forum" style="shape=table;startSize=30;container=1;collapsible=1;childLayout=tableLayout;fixedRows=1;rowLines=0;fontStyle=0;align=center;resizeLast=1;fillColor=#ffe6cc;strokeColor=#FFFFFF;fontColor=#000000;gradientColor=none;strokeWidth=1;" parent="JIDkRxaZU-pqOcT1NkvT-1" vertex="1">
                    <mxGeometry x="-280" y="840" width="170" height="210" as="geometry">
                        <mxRectangle x="-520" y="400" width="70" height="30" as="alternateBounds"/>
                    </mxGeometry>
                </mxCell>
                <mxCell id="9dKErNAijt5KgHU88vmQ-1" value="" style="shape=tableRow;horizontal=0;startSize=0;swimlaneHead=0;swimlaneBody=0;fillColor=none;collapsible=0;dropTarget=0;points=[[0,0.5],[1,0.5]];portConstraint=eastwest;top=0;left=0;right=0;bottom=1;" parent="9dKErNAijt5KgHU88vmQ-0" vertex="1">
                    <mxGeometry y="30" width="170" height="30" as="geometry"/>
                </mxCell>
                <mxCell id="9dKErNAijt5KgHU88vmQ-2" value="PK" style="shape=partialRectangle;connectable=0;fillColor=default;top=0;left=0;bottom=0;right=0;fontStyle=0;overflow=hidden;" parent="9dKErNAijt5KgHU88vmQ-1" vertex="1">
                    <mxGeometry width="30" height="30" as="geometry">
                        <mxRectangle width="30" height="30" as="alternateBounds"/>
                    </mxGeometry>
                </mxCell>
                <mxCell id="9dKErNAijt5KgHU88vmQ-3" value="forum_id" style="shape=partialRectangle;connectable=0;fillColor=default;top=0;left=0;bottom=0;right=0;align=left;spacingLeft=6;fontStyle=0;overflow=hidden;" parent="9dKErNAijt5KgHU88vmQ-1" vertex="1">
                    <mxGeometry x="30" width="140" height="30" as="geometry">
                        <mxRectangle width="140" height="30" as="alternateBounds"/>
                    </mxGeometry>
                </mxCell>
                <mxCell id="9dKErNAijt5KgHU88vmQ-4" value="" style="shape=tableRow;horizontal=0;startSize=0;swimlaneHead=0;swimlaneBody=0;fillColor=none;collapsible=0;dropTarget=0;points=[[0,0.5],[1,0.5]];portConstraint=eastwest;top=0;left=0;right=0;bottom=0;" parent="9dKErNAijt5KgHU88vmQ-0" vertex="1">
                    <mxGeometry y="60" width="170" height="30" as="geometry"/>
                </mxCell>
                <mxCell id="9dKErNAijt5KgHU88vmQ-5" value="EFK" style="shape=partialRectangle;connectable=0;fillColor=default;top=0;left=0;bottom=0;right=0;editable=1;overflow=hidden;" parent="9dKErNAijt5KgHU88vmQ-4" vertex="1">
                    <mxGeometry width="30" height="30" as="geometry">
                        <mxRectangle width="30" height="30" as="alternateBounds"/>
                    </mxGeometry>
                </mxCell>
                <mxCell id="9dKErNAijt5KgHU88vmQ-6" value="username" style="shape=partialRectangle;connectable=0;fillColor=default;top=0;left=0;bottom=0;right=0;align=left;spacingLeft=6;overflow=hidden;" parent="9dKErNAijt5KgHU88vmQ-4" vertex="1">
                    <mxGeometry x="30" width="140" height="30" as="geometry">
                        <mxRectangle width="140" height="30" as="alternateBounds"/>
                    </mxGeometry>
                </mxCell>
                <mxCell id="9dKErNAijt5KgHU88vmQ-16" style="shape=tableRow;horizontal=0;startSize=0;swimlaneHead=0;swimlaneBody=0;fillColor=none;collapsible=0;dropTarget=0;points=[[0,0.5],[1,0.5]];portConstraint=eastwest;top=0;left=0;right=0;bottom=0;" parent="9dKErNAijt5KgHU88vmQ-0" vertex="1">
                    <mxGeometry y="90" width="170" height="30" as="geometry"/>
                </mxCell>
                <mxCell id="9dKErNAijt5KgHU88vmQ-17" style="shape=partialRectangle;connectable=0;fillColor=default;top=0;left=0;bottom=0;right=0;editable=1;overflow=hidden;" parent="9dKErNAijt5KgHU88vmQ-16" vertex="1">
                    <mxGeometry width="30" height="30" as="geometry">
                        <mxRectangle width="30" height="30" as="alternateBounds"/>
                    </mxGeometry>
                </mxCell>
                <mxCell id="9dKErNAijt5KgHU88vmQ-18" value="reference_product" style="shape=partialRectangle;connectable=0;fillColor=default;top=0;left=0;bottom=0;right=0;align=left;spacingLeft=6;overflow=hidden;" parent="9dKErNAijt5KgHU88vmQ-16" vertex="1">
                    <mxGeometry x="30" width="140" height="30" as="geometry">
                        <mxRectangle width="140" height="30" as="alternateBounds"/>
                    </mxGeometry>
                </mxCell>
                <mxCell id="9dKErNAijt5KgHU88vmQ-7" style="shape=tableRow;horizontal=0;startSize=0;swimlaneHead=0;swimlaneBody=0;fillColor=none;collapsible=0;dropTarget=0;points=[[0,0.5],[1,0.5]];portConstraint=eastwest;top=0;left=0;right=0;bottom=0;" parent="9dKErNAijt5KgHU88vmQ-0" vertex="1">
                    <mxGeometry y="120" width="170" height="30" as="geometry"/>
                </mxCell>
                <mxCell id="9dKErNAijt5KgHU88vmQ-8" value="EFK" style="shape=partialRectangle;connectable=0;fillColor=default;top=0;left=0;bottom=0;right=0;editable=1;overflow=hidden;" parent="9dKErNAijt5KgHU88vmQ-7" vertex="1">
                    <mxGeometry width="30" height="30" as="geometry">
                        <mxRectangle width="30" height="30" as="alternateBounds"/>
                    </mxGeometry>
                </mxCell>
                <mxCell id="9dKErNAijt5KgHU88vmQ-9" value="reference_id" style="shape=partialRectangle;connectable=0;fillColor=default;top=0;left=0;bottom=0;right=0;align=left;spacingLeft=6;overflow=hidden;" parent="9dKErNAijt5KgHU88vmQ-7" vertex="1">
                    <mxGeometry x="30" width="140" height="30" as="geometry">
                        <mxRectangle width="140" height="30" as="alternateBounds"/>
                    </mxGeometry>
                </mxCell>
                <mxCell id="9dKErNAijt5KgHU88vmQ-13" style="shape=tableRow;horizontal=0;startSize=0;swimlaneHead=0;swimlaneBody=0;fillColor=none;collapsible=0;dropTarget=0;points=[[0,0.5],[1,0.5]];portConstraint=eastwest;top=0;left=0;right=0;bottom=0;" parent="9dKErNAijt5KgHU88vmQ-0" vertex="1">
                    <mxGeometry y="150" width="170" height="30" as="geometry"/>
                </mxCell>
                <mxCell id="9dKErNAijt5KgHU88vmQ-14" style="shape=partialRectangle;connectable=0;fillColor=default;top=0;left=0;bottom=0;right=0;editable=1;overflow=hidden;" parent="9dKErNAijt5KgHU88vmQ-13" vertex="1">
                    <mxGeometry width="30" height="30" as="geometry">
                        <mxRectangle width="30" height="30" as="alternateBounds"/>
                    </mxGeometry>
                </mxCell>
                <mxCell id="9dKErNAijt5KgHU88vmQ-15" value="topic" style="shape=partialRectangle;connectable=0;fillColor=default;top=0;left=0;bottom=0;right=0;align=left;spacingLeft=6;overflow=hidden;" parent="9dKErNAijt5KgHU88vmQ-13" vertex="1">
                    <mxGeometry x="30" width="140" height="30" as="geometry">
                        <mxRectangle width="140" height="30" as="alternateBounds"/>
                    </mxGeometry>
                </mxCell>
                <mxCell id="9dKErNAijt5KgHU88vmQ-10" style="shape=tableRow;horizontal=0;startSize=0;swimlaneHead=0;swimlaneBody=0;fillColor=none;collapsible=0;dropTarget=0;points=[[0,0.5],[1,0.5]];portConstraint=eastwest;top=0;left=0;right=0;bottom=0;" parent="9dKErNAijt5KgHU88vmQ-0" vertex="1">
                    <mxGeometry y="180" width="170" height="30" as="geometry"/>
                </mxCell>
                <mxCell id="9dKErNAijt5KgHU88vmQ-11" style="shape=partialRectangle;connectable=0;fillColor=default;top=0;left=0;bottom=0;right=0;editable=1;overflow=hidden;" parent="9dKErNAijt5KgHU88vmQ-10" vertex="1">
                    <mxGeometry width="30" height="30" as="geometry">
                        <mxRectangle width="30" height="30" as="alternateBounds"/>
                    </mxGeometry>
                </mxCell>
                <mxCell id="9dKErNAijt5KgHU88vmQ-12" value="description" style="shape=partialRectangle;connectable=0;fillColor=default;top=0;left=0;bottom=0;right=0;align=left;spacingLeft=6;overflow=hidden;" parent="9dKErNAijt5KgHU88vmQ-10" vertex="1">
                    <mxGeometry x="30" width="140" height="30" as="geometry">
                        <mxRectangle width="140" height="30" as="alternateBounds"/>
                    </mxGeometry>
                </mxCell>
            </root>
        </mxGraphModel>
    </diagram>
    <diagram id="WOLBVA9Me1Wa0fvilhO2" name="Layers">
        <mxGraphModel dx="1126" dy="774" grid="1" gridSize="10" guides="1" tooltips="1" connect="1" arrows="1" fold="1" page="1" pageScale="1" pageWidth="850" pageHeight="1100" math="0" shadow="0">
            <root>
                <mxCell id="QTYUwaDDuOOB8J-H3AXs-0"/>
                <mxCell id="QTYUwaDDuOOB8J-H3AXs-1" parent="QTYUwaDDuOOB8J-H3AXs-0"/>
                <mxCell id="s-1NIhFulWwdRHVJhDrq-0" value="&lt;h1&gt;Assumptions&lt;/h1&gt;&lt;p&gt;Layered services require proxy endpoints to communicate with each other.&lt;br&gt;&lt;br&gt;Business logic is handled on the service of what it is related to.&lt;/p&gt;&lt;p&gt;Example 1:&lt;br&gt;&lt;span&gt;&lt;br&gt;Scenario - Create/Update/Delete/Read comments of a Boardgame -&amp;gt; /catalog/bg/&amp;lt;id&amp;gt;/comment/&lt;/span&gt;&lt;/p&gt;&lt;p&gt;&lt;span&gt;When - endpoints on the catalog that receives the comment, its update, the order for deletion or just the Get information and redirects it to the comments svc.&lt;/span&gt;&lt;/p&gt;&lt;p&gt;Flow - First we validate if the ID is valid and BG exists, and then we proxy the request to the comments service. This service in turn will tell the catalog of the result and it will redirect the response to the FE.&lt;/p&gt;&lt;p&gt;FE -&amp;gt; Catalog -&amp;gt; Rating&lt;br&gt;&lt;br&gt;Example 2:&lt;/p&gt;&lt;p&gt;Scenario - Rating a comment -&amp;gt;&amp;nbsp;&lt;span&gt;comments/&amp;lt;id&amp;gt;/rate/&lt;/span&gt;&lt;/p&gt;&lt;p&gt;When - We click on the upvote/downvote of a comment. There is not really a page/url to direct us somewhere, just a request to update comment rating.&lt;/p&gt;&lt;p&gt;Flow - In this case, we don't have to go through the catalog but instead through the comments service since the reference namespace is no longer a boardgame (Domain is diferent). Basically we make a request to Comment service to rate a certain comment.&lt;/p&gt;&lt;p&gt;&lt;span&gt;FE -&amp;gt; Comment -&amp;gt; Rating&lt;/span&gt;&lt;/p&gt;&lt;p&gt;&lt;br&gt;Example 3:&amp;nbsp;&lt;/p&gt;&lt;p&gt;/book/&amp;lt;id&amp;gt;/comment/&lt;br&gt;&amp;nbsp;Image we had Books and comments of Books and wanted to implement a &quot;IsSpoiler&quot; review of comment.&amp;nbsp;&lt;br&gt;We would have to look at the comment information and check if there were spoilers on the Book service before redirecting the &quot;New Comment&quot; request to the comments svc.&amp;nbsp;&lt;br&gt;-&amp;gt; Handling business logic where it is needed.&lt;/p&gt;&lt;p&gt;&lt;br&gt;&lt;/p&gt;" style="text;html=1;strokeColor=none;fillColor=none;spacing=5;spacingTop=-20;whiteSpace=wrap;overflow=hidden;rounded=0;fontColor=#FFFFFF;" parent="QTYUwaDDuOOB8J-H3AXs-1" vertex="1">
                    <mxGeometry y="10" width="850" height="520" as="geometry"/>
                </mxCell>
                <mxCell id="LSzzSOXwvSCxCkPYBpl_-2" value="Create Comment &lt;br&gt;of type BG" style="edgeStyle=none;html=1;fontColor=#FFFFFF;strokeColor=#FFFFFF;" parent="QTYUwaDDuOOB8J-H3AXs-1" source="LSzzSOXwvSCxCkPYBpl_-0" target="LSzzSOXwvSCxCkPYBpl_-1" edge="1">
                    <mxGeometry relative="1" as="geometry">
                        <Array as="points">
                            <mxPoint x="410" y="770"/>
                        </Array>
                    </mxGeometry>
                </mxCell>
                <mxCell id="LSzzSOXwvSCxCkPYBpl_-0" value="Catalog svc" style="rounded=0;whiteSpace=wrap;html=1;fillColor=#fff2cc;strokeColor=#0F0D06;fontColor=#000000;" parent="QTYUwaDDuOOB8J-H3AXs-1" vertex="1">
                    <mxGeometry x="240" y="740" width="120" height="60" as="geometry"/>
                </mxCell>
                <mxCell id="LSzzSOXwvSCxCkPYBpl_-1" value="Comment svc" style="rounded=0;whiteSpace=wrap;html=1;fillColor=#fff2cc;strokeColor=#0F0D06;fontColor=#000000;" parent="QTYUwaDDuOOB8J-H3AXs-1" vertex="1">
                    <mxGeometry x="520" y="740" width="120" height="60" as="geometry"/>
                </mxCell>
                <mxCell id="LSzzSOXwvSCxCkPYBpl_-3" value="/boardgame/&amp;lt;id&amp;gt;/comment" style="edgeStyle=none;html=1;fontColor=#FFFFFF;strokeColor=#FFFFFF;entryX=0;entryY=0.5;entryDx=0;entryDy=0;" parent="QTYUwaDDuOOB8J-H3AXs-1" target="LSzzSOXwvSCxCkPYBpl_-0" edge="1">
                    <mxGeometry relative="1" as="geometry">
                        <mxPoint x="60" y="770" as="sourcePoint"/>
                        <mxPoint x="240" y="770" as="targetPoint"/>
                    </mxGeometry>
                </mxCell>
                <mxCell id="LGkJfu7zZIWLlxkmGHPH-0" value="Create Rate&lt;br&gt;of type Comment" style="edgeStyle=none;html=1;fontColor=#FFFFFF;strokeColor=#FFFFFF;" parent="QTYUwaDDuOOB8J-H3AXs-1" source="LGkJfu7zZIWLlxkmGHPH-1" target="LGkJfu7zZIWLlxkmGHPH-2" edge="1">
                    <mxGeometry relative="1" as="geometry">
                        <Array as="points">
                            <mxPoint x="410" y="1070"/>
                        </Array>
                    </mxGeometry>
                </mxCell>
                <mxCell id="LGkJfu7zZIWLlxkmGHPH-1" value="Comment svc" style="rounded=0;whiteSpace=wrap;html=1;fillColor=#fff2cc;strokeColor=#0F0D06;fontColor=#000000;" parent="QTYUwaDDuOOB8J-H3AXs-1" vertex="1">
                    <mxGeometry x="240" y="1040" width="120" height="60" as="geometry"/>
                </mxCell>
                <mxCell id="LGkJfu7zZIWLlxkmGHPH-2" value="Rating svc" style="rounded=0;whiteSpace=wrap;html=1;fillColor=#fff2cc;strokeColor=#0F0D06;fontColor=#000000;" parent="QTYUwaDDuOOB8J-H3AXs-1" vertex="1">
                    <mxGeometry x="520" y="1040" width="120" height="60" as="geometry"/>
                </mxCell>
                <mxCell id="LGkJfu7zZIWLlxkmGHPH-3" value="comment/&amp;lt;id&amp;gt;/rate" style="edgeStyle=none;html=1;fontColor=#FFFFFF;strokeColor=#FFFFFF;entryX=0;entryY=0.5;entryDx=0;entryDy=0;" parent="QTYUwaDDuOOB8J-H3AXs-1" target="LGkJfu7zZIWLlxkmGHPH-1" edge="1">
                    <mxGeometry relative="1" as="geometry">
                        <mxPoint x="60" y="1070" as="sourcePoint"/>
                        <mxPoint x="240" y="1070" as="targetPoint"/>
                    </mxGeometry>
                </mxCell>
                <mxCell id="LGkJfu7zZIWLlxkmGHPH-8" value="Create Forum&lt;br&gt;of BG X" style="edgeStyle=none;html=1;fontColor=#FFFFFF;strokeColor=#FFFFFF;" parent="QTYUwaDDuOOB8J-H3AXs-1" source="LGkJfu7zZIWLlxkmGHPH-9" target="LGkJfu7zZIWLlxkmGHPH-10" edge="1">
                    <mxGeometry relative="1" as="geometry">
                        <Array as="points">
                            <mxPoint x="410" y="870"/>
                        </Array>
                    </mxGeometry>
                </mxCell>
                <mxCell id="LGkJfu7zZIWLlxkmGHPH-9" value="Catalog svc" style="rounded=0;whiteSpace=wrap;html=1;fillColor=#fff2cc;strokeColor=#0F0D06;fontColor=#000000;" parent="QTYUwaDDuOOB8J-H3AXs-1" vertex="1">
                    <mxGeometry x="240" y="840" width="120" height="60" as="geometry"/>
                </mxCell>
                <mxCell id="LGkJfu7zZIWLlxkmGHPH-10" value="Forum svc" style="rounded=0;whiteSpace=wrap;html=1;fillColor=#fff2cc;strokeColor=#0F0D06;fontColor=#000000;" parent="QTYUwaDDuOOB8J-H3AXs-1" vertex="1">
                    <mxGeometry x="520" y="840" width="120" height="60" as="geometry"/>
                </mxCell>
                <mxCell id="LGkJfu7zZIWLlxkmGHPH-11" value="/boardgame/&amp;lt;id&amp;gt;/createForum" style="edgeStyle=none;html=1;fontColor=#FFFFFF;strokeColor=#FFFFFF;entryX=0;entryY=0.5;entryDx=0;entryDy=0;" parent="QTYUwaDDuOOB8J-H3AXs-1" target="LGkJfu7zZIWLlxkmGHPH-9" edge="1">
                    <mxGeometry relative="1" as="geometry">
                        <mxPoint x="60" y="870" as="sourcePoint"/>
                        <mxPoint x="240" y="870" as="targetPoint"/>
                    </mxGeometry>
                </mxCell>
                <mxCell id="LGkJfu7zZIWLlxkmGHPH-12" value="Create Rating&lt;br&gt;of type BG" style="edgeStyle=none;html=1;fontColor=#FFFFFF;strokeColor=#FFFFFF;" parent="QTYUwaDDuOOB8J-H3AXs-1" source="LGkJfu7zZIWLlxkmGHPH-13" target="LGkJfu7zZIWLlxkmGHPH-14" edge="1">
                    <mxGeometry relative="1" as="geometry">
                        <Array as="points">
                            <mxPoint x="410" y="670"/>
                        </Array>
                    </mxGeometry>
                </mxCell>
                <mxCell id="LGkJfu7zZIWLlxkmGHPH-13" value="Catalog svc" style="rounded=0;whiteSpace=wrap;html=1;fillColor=#fff2cc;strokeColor=#0F0D06;fontColor=#000000;" parent="QTYUwaDDuOOB8J-H3AXs-1" vertex="1">
                    <mxGeometry x="240" y="640" width="120" height="60" as="geometry"/>
                </mxCell>
                <mxCell id="LGkJfu7zZIWLlxkmGHPH-14" value="Rating svc" style="rounded=0;whiteSpace=wrap;html=1;fillColor=#fff2cc;strokeColor=#0F0D06;fontColor=#000000;" parent="QTYUwaDDuOOB8J-H3AXs-1" vertex="1">
                    <mxGeometry x="520" y="640" width="120" height="60" as="geometry"/>
                </mxCell>
                <mxCell id="LGkJfu7zZIWLlxkmGHPH-15" value="/boardgame/&amp;lt;id&amp;gt;/rate" style="edgeStyle=none;html=1;fontColor=#FFFFFF;strokeColor=#FFFFFF;entryX=0;entryY=0.5;entryDx=0;entryDy=0;" parent="QTYUwaDDuOOB8J-H3AXs-1" target="LGkJfu7zZIWLlxkmGHPH-13" edge="1">
                    <mxGeometry relative="1" as="geometry">
                        <mxPoint x="60" y="670" as="sourcePoint"/>
                        <mxPoint x="240" y="670" as="targetPoint"/>
                    </mxGeometry>
                </mxCell>
                <mxCell id="dRRK2GNnEwyHDnXU2g1F-6" value="List svc" style="rounded=0;whiteSpace=wrap;html=1;fillColor=#fff2cc;strokeColor=#0F0D06;fontColor=#000000;" parent="QTYUwaDDuOOB8J-H3AXs-1" vertex="1">
                    <mxGeometry x="240" y="1140" width="120" height="60" as="geometry"/>
                </mxCell>
                <mxCell id="dRRK2GNnEwyHDnXU2g1F-7" value="/user/&amp;lt;id&amp;gt;/lists&lt;br&gt;Get List/s" style="edgeStyle=none;html=1;fontColor=#FFFFFF;strokeColor=#FFFFFF;entryX=0;entryY=0.5;entryDx=0;entryDy=0;" parent="QTYUwaDDuOOB8J-H3AXs-1" edge="1">
                    <mxGeometry relative="1" as="geometry">
                        <mxPoint x="60" y="1170" as="sourcePoint"/>
                        <mxPoint x="240" y="1170" as="targetPoint"/>
                    </mxGeometry>
                </mxCell>
                <mxCell id="dRRK2GNnEwyHDnXU2g1F-8" value="Add BG to List" style="edgeStyle=none;html=1;fontColor=#FFFFFF;strokeColor=#FFFFFF;" parent="QTYUwaDDuOOB8J-H3AXs-1" source="dRRK2GNnEwyHDnXU2g1F-9" target="dRRK2GNnEwyHDnXU2g1F-10" edge="1">
                    <mxGeometry relative="1" as="geometry">
                        <Array as="points">
                            <mxPoint x="410" y="970"/>
                        </Array>
                    </mxGeometry>
                </mxCell>
                <mxCell id="dRRK2GNnEwyHDnXU2g1F-9" value="Catalog svc" style="rounded=0;whiteSpace=wrap;html=1;fillColor=#fff2cc;strokeColor=#0F0D06;fontColor=#000000;" parent="QTYUwaDDuOOB8J-H3AXs-1" vertex="1">
                    <mxGeometry x="240" y="940" width="120" height="60" as="geometry"/>
                </mxCell>
                <mxCell id="dRRK2GNnEwyHDnXU2g1F-10" value="List svc" style="rounded=0;whiteSpace=wrap;html=1;fillColor=#fff2cc;strokeColor=#0F0D06;fontColor=#000000;" parent="QTYUwaDDuOOB8J-H3AXs-1" vertex="1">
                    <mxGeometry x="520" y="940" width="120" height="60" as="geometry"/>
                </mxCell>
                <mxCell id="dRRK2GNnEwyHDnXU2g1F-11" value="/boardgame/&amp;lt;id&amp;gt;" style="edgeStyle=none;html=1;fontColor=#FFFFFF;strokeColor=#FFFFFF;entryX=0;entryY=0.5;entryDx=0;entryDy=0;" parent="QTYUwaDDuOOB8J-H3AXs-1" target="dRRK2GNnEwyHDnXU2g1F-9" edge="1">
                    <mxGeometry relative="1" as="geometry">
                        <mxPoint x="60" y="970" as="sourcePoint"/>
                        <mxPoint x="240" y="970" as="targetPoint"/>
                    </mxGeometry>
                </mxCell>
                <mxCell id="8QZj6fxgMUbuVrwWBaKM-0" value="&lt;font color=&quot;#030303&quot;&gt;List svc&lt;/font&gt;" style="rounded=0;whiteSpace=wrap;html=1;fillColor=#f8cecc;strokeColor=#b85450;" parent="QTYUwaDDuOOB8J-H3AXs-1" vertex="1">
                    <mxGeometry x="240" y="1240" width="120" height="60" as="geometry"/>
                </mxCell>
                <mxCell id="8QZj6fxgMUbuVrwWBaKM-1" value="user/&amp;lt;id&amp;gt;/allProductRatings" style="edgeStyle=none;html=1;fontColor=#FFFFFF;strokeColor=#FFFFFF;entryX=0;entryY=0.5;entryDx=0;entryDy=0;" parent="QTYUwaDDuOOB8J-H3AXs-1" edge="1">
                    <mxGeometry relative="1" as="geometry">
                        <mxPoint x="60" y="1270" as="sourcePoint"/>
                        <mxPoint x="240" y="1270" as="targetPoint"/>
                    </mxGeometry>
                </mxCell>
                <mxCell id="8QZj6fxgMUbuVrwWBaKM-2" value="Rating svc" style="rounded=0;whiteSpace=wrap;html=1;fillColor=#fff2cc;strokeColor=#0F0D06;fontColor=#000000;" parent="QTYUwaDDuOOB8J-H3AXs-1" vertex="1">
                    <mxGeometry x="520" y="1240" width="120" height="60" as="geometry"/>
                </mxCell>
                <mxCell id="8QZj6fxgMUbuVrwWBaKM-3" value="Create list of all &lt;br&gt;product ratings" style="edgeStyle=none;html=1;fontColor=#FFFFFF;strokeColor=#FFFFFF;entryX=0;entryY=0.5;entryDx=0;entryDy=0;exitX=1;exitY=0.5;exitDx=0;exitDy=0;" parent="QTYUwaDDuOOB8J-H3AXs-1" source="8QZj6fxgMUbuVrwWBaKM-0" target="8QZj6fxgMUbuVrwWBaKM-2" edge="1">
                    <mxGeometry relative="1" as="geometry">
                        <mxPoint x="70" y="1280" as="sourcePoint"/>
                        <mxPoint x="250" y="1280" as="targetPoint"/>
                    </mxGeometry>
                </mxCell>
            </root>
        </mxGraphModel>
    </diagram>
    <diagram id="zJ-vlz7y0WfrWztj-bcC" name="Domains">
        <mxGraphModel dx="1976" dy="1874" grid="1" gridSize="10" guides="1" tooltips="1" connect="1" arrows="1" fold="1" page="1" pageScale="1" pageWidth="850" pageHeight="1100" math="0" shadow="0">
            <root>
                <mxCell id="yCYxKsMmbu7pB_q9ckmc-0"/>
                <mxCell id="yCYxKsMmbu7pB_q9ckmc-1" parent="yCYxKsMmbu7pB_q9ckmc-0"/>
                <mxCell id="uPjLAt5OETWJk50cGiDW-0" value="Catalog" style="rounded=0;whiteSpace=wrap;html=1;fillColor=#fff2cc;strokeColor=#0F0D06;fontColor=#000000;" parent="yCYxKsMmbu7pB_q9ckmc-1" vertex="1">
                    <mxGeometry x="-580" y="-770" width="120" height="160" as="geometry"/>
                </mxCell>
                <mxCell id="uPjLAt5OETWJk50cGiDW-1" value="Post/Update/Delete &lt;br&gt;rating to Comment X" style="edgeStyle=none;html=1;fillColor=#d80073;strokeColor=#A50040;strokeWidth=3;" parent="yCYxKsMmbu7pB_q9ckmc-1" source="uPjLAt5OETWJk50cGiDW-2" target="uPjLAt5OETWJk50cGiDW-3" edge="1">
                    <mxGeometry relative="1" as="geometry"/>
                </mxCell>
                <mxCell id="uPjLAt5OETWJk50cGiDW-2" value="&lt;font color=&quot;#080808&quot;&gt;Comments&lt;br&gt;&lt;/font&gt;" style="rounded=0;whiteSpace=wrap;html=1;fillColor=#f8cecc;strokeColor=#b85450;" parent="yCYxKsMmbu7pB_q9ckmc-1" vertex="1">
                    <mxGeometry x="-290" y="-780" width="120" height="60" as="geometry"/>
                </mxCell>
                <mxCell id="uPjLAt5OETWJk50cGiDW-3" value="&lt;font color=&quot;#080808&quot;&gt;Ratings&lt;br&gt;&lt;/font&gt;" style="rounded=0;whiteSpace=wrap;html=1;fillColor=#f8cecc;strokeColor=#b85450;" parent="yCYxKsMmbu7pB_q9ckmc-1" vertex="1">
                    <mxGeometry x="-290" y="-640" width="120" height="60" as="geometry"/>
                </mxCell>
                <mxCell id="uPjLAt5OETWJk50cGiDW-4" value="&lt;font color=&quot;#080808&quot;&gt;Forum&lt;br&gt;&lt;/font&gt;" style="rounded=0;whiteSpace=wrap;html=1;fillColor=#f8cecc;strokeColor=#b85450;" parent="yCYxKsMmbu7pB_q9ckmc-1" vertex="1">
                    <mxGeometry x="-580" y="-490" width="120" height="60" as="geometry"/>
                </mxCell>
                <mxCell id="uPjLAt5OETWJk50cGiDW-5" value="Post/Get/Update/Delete&lt;br&gt;&amp;nbsp;comment to boardgame X" style="edgeStyle=orthogonalEdgeStyle;rounded=0;orthogonalLoop=1;jettySize=auto;html=1;entryX=0;entryY=0.5;entryDx=0;entryDy=0;fillColor=#60a917;strokeColor=#2D7600;strokeWidth=3;" parent="yCYxKsMmbu7pB_q9ckmc-1" target="uPjLAt5OETWJk50cGiDW-2" edge="1">
                    <mxGeometry x="0.2174" relative="1" as="geometry">
                        <mxPoint x="-460" y="-690" as="sourcePoint"/>
                        <mxPoint as="offset"/>
                        <mxPoint x="-580" y="-770" as="targetPoint"/>
                        <Array as="points">
                            <mxPoint x="-460" y="-690"/>
                            <mxPoint x="-400" y="-690"/>
                            <mxPoint x="-400" y="-750"/>
                        </Array>
                    </mxGeometry>
                </mxCell>
                <mxCell id="uPjLAt5OETWJk50cGiDW-6" value="Post/Get/Update/Delete&lt;br&gt;&amp;nbsp;rating to boardgame X" style="edgeStyle=orthogonalEdgeStyle;rounded=0;orthogonalLoop=1;jettySize=auto;html=1;entryX=0;entryY=0.5;entryDx=0;entryDy=0;fillColor=#0050ef;strokeColor=#001DBC;strokeWidth=3;" parent="yCYxKsMmbu7pB_q9ckmc-1" target="uPjLAt5OETWJk50cGiDW-3" edge="1">
                    <mxGeometry x="0.3913" relative="1" as="geometry">
                        <mxPoint x="-460" y="-670" as="sourcePoint"/>
                        <mxPoint as="offset"/>
                        <mxPoint x="-280" y="-740" as="targetPoint"/>
                        <Array as="points">
                            <mxPoint x="-460" y="-670"/>
                            <mxPoint x="-400" y="-670"/>
                            <mxPoint x="-400" y="-610"/>
                        </Array>
                    </mxGeometry>
                </mxCell>
                <mxCell id="uPjLAt5OETWJk50cGiDW-7" value="Upvote/Downvote/Delete&lt;br&gt;comment X" style="edgeStyle=orthogonalEdgeStyle;rounded=0;orthogonalLoop=1;jettySize=auto;html=1;entryX=0.5;entryY=0;entryDx=0;entryDy=0;fillColor=#d80073;strokeColor=#A50040;strokeWidth=3;" parent="yCYxKsMmbu7pB_q9ckmc-1" target="uPjLAt5OETWJk50cGiDW-2" edge="1">
                    <mxGeometry x="-0.0909" relative="1" as="geometry">
                        <mxPoint x="-230" y="-890" as="sourcePoint"/>
                        <mxPoint as="offset"/>
                        <mxPoint x="-280" y="-600" as="targetPoint"/>
                        <Array as="points">
                            <mxPoint x="-230" y="-870"/>
                            <mxPoint x="-230" y="-870"/>
                        </Array>
                    </mxGeometry>
                </mxCell>
                <mxCell id="uPjLAt5OETWJk50cGiDW-8" value="CRUD comment &lt;br&gt;on Boargame X" style="edgeStyle=orthogonalEdgeStyle;rounded=0;orthogonalLoop=1;jettySize=auto;html=1;fillColor=#60a917;strokeColor=#2D7600;strokeWidth=3;" parent="yCYxKsMmbu7pB_q9ckmc-1" edge="1">
                    <mxGeometry x="-0.1579" y="10" relative="1" as="geometry">
                        <mxPoint x="-730" y="-760" as="sourcePoint"/>
                        <mxPoint as="offset"/>
                        <mxPoint x="-580" y="-760" as="targetPoint"/>
                        <Array as="points">
                            <mxPoint x="-750" y="-760"/>
                        </Array>
                    </mxGeometry>
                </mxCell>
                <mxCell id="uPjLAt5OETWJk50cGiDW-9" value="CRUD Rate &lt;br&gt;on Boargame X" style="edgeStyle=orthogonalEdgeStyle;rounded=0;orthogonalLoop=1;jettySize=auto;html=1;fillColor=#0050ef;strokeColor=#001DBC;strokeWidth=3;" parent="yCYxKsMmbu7pB_q9ckmc-1" edge="1">
                    <mxGeometry x="-0.1579" relative="1" as="geometry">
                        <mxPoint x="-730" y="-670" as="sourcePoint"/>
                        <mxPoint as="offset"/>
                        <mxPoint x="-580" y="-670" as="targetPoint"/>
                        <Array as="points">
                            <mxPoint x="-750" y="-670"/>
                        </Array>
                    </mxGeometry>
                </mxCell>
                <mxCell id="uPjLAt5OETWJk50cGiDW-10" value="Marketplace" style="rounded=0;whiteSpace=wrap;html=1;fillColor=#fff2cc;strokeColor=#0F0D06;fontColor=#000000;" parent="yCYxKsMmbu7pB_q9ckmc-1" vertex="1">
                    <mxGeometry x="-580" y="-950" width="120" height="60" as="geometry"/>
                </mxCell>
                <mxCell id="uPjLAt5OETWJk50cGiDW-11" value="Post Offer of&amp;nbsp;&lt;br&gt;&amp;nbsp;type Boardgame X" style="edgeStyle=orthogonalEdgeStyle;rounded=0;orthogonalLoop=1;jettySize=auto;html=1;entryX=0.5;entryY=1;entryDx=0;entryDy=0;fillColor=#e3c800;strokeColor=#B09500;strokeWidth=3;" parent="yCYxKsMmbu7pB_q9ckmc-1" target="uPjLAt5OETWJk50cGiDW-10" edge="1">
                    <mxGeometry x="0.1429" relative="1" as="geometry">
                        <mxPoint x="-520" y="-770" as="sourcePoint"/>
                        <mxPoint as="offset"/>
                        <mxPoint x="-280" y="-740" as="targetPoint"/>
                        <Array as="points">
                            <mxPoint x="-520" y="-770"/>
                            <mxPoint x="-520" y="-770"/>
                        </Array>
                    </mxGeometry>
                </mxCell>
                <mxCell id="uPjLAt5OETWJk50cGiDW-12" value="RUD Offers" style="edgeStyle=orthogonalEdgeStyle;rounded=0;orthogonalLoop=1;jettySize=auto;html=1;entryX=0;entryY=0.5;entryDx=0;entryDy=0;fillColor=#f0a30a;strokeColor=#BD7000;strokeWidth=3;" parent="yCYxKsMmbu7pB_q9ckmc-1" target="uPjLAt5OETWJk50cGiDW-10" edge="1">
                    <mxGeometry x="-0.0909" relative="1" as="geometry">
                        <mxPoint x="-760" y="-920" as="sourcePoint"/>
                        <mxPoint as="offset"/>
                        <mxPoint x="-700" y="-810" as="targetPoint"/>
                        <Array as="points">
                            <mxPoint x="-740" y="-920"/>
                        </Array>
                    </mxGeometry>
                </mxCell>
                <mxCell id="uPjLAt5OETWJk50cGiDW-13" value="Create offer of&amp;nbsp;&lt;br&gt;&amp;nbsp;type Boardgame X" style="edgeStyle=orthogonalEdgeStyle;rounded=0;orthogonalLoop=1;jettySize=auto;html=1;entryX=-0.022;entryY=0.345;entryDx=0;entryDy=0;fillColor=#e3c800;strokeColor=#B09500;strokeWidth=3;entryPerimeter=0;" parent="yCYxKsMmbu7pB_q9ckmc-1" target="uPjLAt5OETWJk50cGiDW-0" edge="1">
                    <mxGeometry x="-0.1579" relative="1" as="geometry">
                        <mxPoint x="-750" y="-715" as="sourcePoint"/>
                        <mxPoint as="offset"/>
                        <mxPoint x="-510" y="-840" as="targetPoint"/>
                        <Array as="points">
                            <mxPoint x="-750" y="-715"/>
                        </Array>
                    </mxGeometry>
                </mxCell>
                <mxCell id="uPjLAt5OETWJk50cGiDW-14" value="CRUD Forum of&amp;nbsp;&lt;br&gt;&amp;nbsp;type Boardgame X" style="edgeStyle=orthogonalEdgeStyle;rounded=0;orthogonalLoop=1;jettySize=auto;html=1;entryX=0;entryY=0.5;entryDx=0;entryDy=0;fillColor=#a0522d;strokeColor=#6D1F00;strokeWidth=3;" parent="yCYxKsMmbu7pB_q9ckmc-1" edge="1">
                    <mxGeometry x="-0.1579" relative="1" as="geometry">
                        <mxPoint x="-750" y="-620" as="sourcePoint"/>
                        <mxPoint as="offset"/>
                        <mxPoint x="-580" y="-620" as="targetPoint"/>
                        <Array as="points">
                            <mxPoint x="-750" y="-620"/>
                        </Array>
                    </mxGeometry>
                </mxCell>
                <mxCell id="uPjLAt5OETWJk50cGiDW-15" value="Post Forum of&amp;nbsp;&lt;br&gt;&amp;nbsp;type Boardgame X" style="edgeStyle=orthogonalEdgeStyle;rounded=0;orthogonalLoop=1;jettySize=auto;html=1;entryX=0.5;entryY=0;entryDx=0;entryDy=0;fillColor=#a0522d;strokeColor=#6D1F00;strokeWidth=3;exitX=0.5;exitY=1;exitDx=0;exitDy=0;" parent="yCYxKsMmbu7pB_q9ckmc-1" source="uPjLAt5OETWJk50cGiDW-0" target="uPjLAt5OETWJk50cGiDW-4" edge="1">
                    <mxGeometry x="-0.1579" relative="1" as="geometry">
                        <mxPoint x="-550" y="-580" as="sourcePoint"/>
                        <mxPoint as="offset"/>
                        <mxPoint x="-570" y="-650" as="targetPoint"/>
                        <Array as="points"/>
                    </mxGeometry>
                </mxCell>
                <mxCell id="uPjLAt5OETWJk50cGiDW-16" value="CRUD Forum of&amp;nbsp;&lt;br&gt;&amp;nbsp;type Social" style="edgeStyle=orthogonalEdgeStyle;rounded=0;orthogonalLoop=1;jettySize=auto;html=1;entryX=0;entryY=0.5;entryDx=0;entryDy=0;fillColor=#647687;strokeColor=#314354;strokeWidth=3;" parent="yCYxKsMmbu7pB_q9ckmc-1" edge="1">
                    <mxGeometry x="0.0588" relative="1" as="geometry">
                        <mxPoint x="-750" y="-480" as="sourcePoint"/>
                        <mxPoint as="offset"/>
                        <mxPoint x="-580" y="-480" as="targetPoint"/>
                        <Array as="points">
                            <mxPoint x="-750" y="-480"/>
                        </Array>
                    </mxGeometry>
                </mxCell>
                <mxCell id="uPjLAt5OETWJk50cGiDW-17" value="CRUD Rate &lt;br&gt;on Forum Y" style="edgeStyle=orthogonalEdgeStyle;rounded=0;orthogonalLoop=1;jettySize=auto;html=1;fillColor=#0050ef;strokeColor=#001DBC;strokeWidth=3;" parent="yCYxKsMmbu7pB_q9ckmc-1" edge="1">
                    <mxGeometry x="-0.1579" y="-20" relative="1" as="geometry">
                        <mxPoint x="-730" y="-430" as="sourcePoint"/>
                        <mxPoint as="offset"/>
                        <mxPoint x="-580" y="-430" as="targetPoint"/>
                        <Array as="points">
                            <mxPoint x="-750" y="-430"/>
                        </Array>
                    </mxGeometry>
                </mxCell>
                <mxCell id="uPjLAt5OETWJk50cGiDW-18" value="CRUD comment &lt;br&gt;on Forum Y" style="edgeStyle=orthogonalEdgeStyle;rounded=0;orthogonalLoop=1;jettySize=auto;html=1;fillColor=#60a917;strokeColor=#2D7600;strokeWidth=3;" parent="yCYxKsMmbu7pB_q9ckmc-1" edge="1">
                    <mxGeometry x="-0.3684" relative="1" as="geometry">
                        <mxPoint x="-730" y="-450" as="sourcePoint"/>
                        <mxPoint as="offset"/>
                        <mxPoint x="-580" y="-450" as="targetPoint"/>
                        <Array as="points">
                            <mxPoint x="-710" y="-450"/>
                            <mxPoint x="-710" y="-450"/>
                        </Array>
                    </mxGeometry>
                </mxCell>
                <mxCell id="uPjLAt5OETWJk50cGiDW-19" value="Post/Get/Update/Delete&lt;br&gt;rating to Forum Y" style="edgeStyle=orthogonalEdgeStyle;rounded=0;orthogonalLoop=1;jettySize=auto;html=1;entryX=0.5;entryY=1;entryDx=0;entryDy=0;fillColor=#0050ef;strokeColor=#001DBC;strokeWidth=3;exitX=1;exitY=0.25;exitDx=0;exitDy=0;" parent="yCYxKsMmbu7pB_q9ckmc-1" source="uPjLAt5OETWJk50cGiDW-4" target="uPjLAt5OETWJk50cGiDW-3" edge="1">
                    <mxGeometry x="0.3913" relative="1" as="geometry">
                        <mxPoint x="-450" y="-660" as="sourcePoint"/>
                        <mxPoint as="offset"/>
                        <mxPoint x="-280" y="-600" as="targetPoint"/>
                        <Array as="points">
                            <mxPoint x="-230" y="-475"/>
                        </Array>
                    </mxGeometry>
                </mxCell>
                <mxCell id="uPjLAt5OETWJk50cGiDW-20" value="Post/Get/Update/Delete&lt;br&gt;&amp;nbsp;comment to Forum Y" style="edgeStyle=orthogonalEdgeStyle;rounded=0;orthogonalLoop=1;jettySize=auto;html=1;entryX=1;entryY=0.5;entryDx=0;entryDy=0;fillColor=#60a917;strokeColor=#2D7600;strokeWidth=3;exitX=1;exitY=0.75;exitDx=0;exitDy=0;" parent="yCYxKsMmbu7pB_q9ckmc-1" source="uPjLAt5OETWJk50cGiDW-4" target="uPjLAt5OETWJk50cGiDW-2" edge="1">
                    <mxGeometry x="0.3913" relative="1" as="geometry">
                        <mxPoint x="-450" y="-680" as="sourcePoint"/>
                        <mxPoint as="offset"/>
                        <mxPoint x="-280" y="-740" as="targetPoint"/>
                        <Array as="points">
                            <mxPoint x="-90" y="-445"/>
                            <mxPoint x="-90" y="-750"/>
                        </Array>
                    </mxGeometry>
                </mxCell>
                <mxCell id="YLGxx5Vn13RV-jvaRaKH-2" value="" style="edgeStyle=none;html=1;strokeWidth=3;fillColor=#e51400;strokeColor=#B20000;" parent="yCYxKsMmbu7pB_q9ckmc-1" source="YLGxx5Vn13RV-jvaRaKH-0" target="YLGxx5Vn13RV-jvaRaKH-1" edge="1">
                    <mxGeometry relative="1" as="geometry"/>
                </mxCell>
                <mxCell id="YLGxx5Vn13RV-jvaRaKH-5" value="Post/Get &lt;br&gt;Ratings of Boardgames&lt;br&gt;[HTTPS]" style="edgeLabel;html=1;align=center;verticalAlign=middle;resizable=0;points=[];" parent="YLGxx5Vn13RV-jvaRaKH-2" vertex="1" connectable="0">
                    <mxGeometry x="-0.1901" y="1" relative="1" as="geometry">
                        <mxPoint as="offset"/>
                    </mxGeometry>
                </mxCell>
                <mxCell id="YLGxx5Vn13RV-jvaRaKH-4" value="" style="edgeStyle=none;html=1;strokeWidth=3;fillColor=#e51400;strokeColor=#B20000;" parent="yCYxKsMmbu7pB_q9ckmc-1" source="YLGxx5Vn13RV-jvaRaKH-0" target="YLGxx5Vn13RV-jvaRaKH-3" edge="1">
                    <mxGeometry relative="1" as="geometry"/>
                </mxCell>
                <mxCell id="YLGxx5Vn13RV-jvaRaKH-6" value="Post/Get&lt;br&gt;Comments of Boardgames&lt;br&gt;[HTTPS]" style="edgeLabel;html=1;align=center;verticalAlign=middle;resizable=0;points=[];" parent="YLGxx5Vn13RV-jvaRaKH-4" vertex="1" connectable="0">
                    <mxGeometry x="-0.2463" y="-2" relative="1" as="geometry">
                        <mxPoint as="offset"/>
                    </mxGeometry>
                </mxCell>
                <mxCell id="YLGxx5Vn13RV-jvaRaKH-19" value="Post/Get&lt;br&gt;Forums of Boardgames&lt;br&gt;[HTTPS]" style="edgeStyle=none;html=1;strokeWidth=3;fillColor=#e51400;strokeColor=#B20000;" parent="yCYxKsMmbu7pB_q9ckmc-1" source="YLGxx5Vn13RV-jvaRaKH-0" target="YLGxx5Vn13RV-jvaRaKH-18" edge="1">
                    <mxGeometry relative="1" as="geometry"/>
                </mxCell>
                <object placeholders="1" c4Type="" c4Container="Catalog" c4Technology="Golang" c4Description="Storage for Boardgames" label="&lt;font style=&quot;font-size: 16px&quot;&gt;&lt;b&gt;%c4Type%&lt;/font&gt;&lt;div&gt;[%c4Container%:&amp;nbsp;%c4Technology%]&lt;/div&gt;&lt;br&gt;&lt;div&gt;&lt;font style=&quot;font-size: 11px&quot;&gt;&lt;font color=&quot;#E6E6E6&quot;&gt;%c4Description%&lt;/font&gt;&lt;/div&gt;" id="YLGxx5Vn13RV-jvaRaKH-0">
                    <mxCell style="shape=hexagon;size=50;perimeter=hexagonPerimeter2;whiteSpace=wrap;html=1;fixedSize=1;rounded=1;labelBackgroundColor=none;fillColor=#23A2D9;fontSize=12;fontColor=#ffffff;align=center;strokeColor=#0E7DAD;metaEdit=1;points=[[0.5,0,0],[1,0.25,0],[1,0.5,0],[1,0.75,0],[0.5,1,0],[0,0.75,0],[0,0.5,0],[0,0.25,0]];resizable=0;" parent="yCYxKsMmbu7pB_q9ckmc-1" vertex="1">
                        <mxGeometry x="90" y="335" width="200" height="170" as="geometry"/>
                    </mxCell>
                </object>
                <object placeholders="1" c4Type="" c4Container="Rating-Manager" c4Technology="" c4Description="Service for Ratings" label="&lt;font style=&quot;font-size: 16px&quot;&gt;&lt;b&gt;%c4Type%&lt;/font&gt;&lt;div&gt;[%c4Container%:&amp;nbsp;%c4Technology%]&lt;/div&gt;&lt;br&gt;&lt;div&gt;&lt;font style=&quot;font-size: 11px&quot;&gt;&lt;font color=&quot;#E6E6E6&quot;&gt;%c4Description%&lt;/font&gt;&lt;/div&gt;" id="YLGxx5Vn13RV-jvaRaKH-1">
                    <mxCell style="shape=hexagon;size=50;perimeter=hexagonPerimeter2;whiteSpace=wrap;html=1;fixedSize=1;rounded=1;labelBackgroundColor=none;fillColor=#23A2D9;fontSize=12;fontColor=#ffffff;align=center;strokeColor=#0E7DAD;metaEdit=1;points=[[0.5,0,0],[1,0.25,0],[1,0.5,0],[1,0.75,0],[0.5,1,0],[0,0.75,0],[0,0.5,0],[0,0.25,0]];resizable=0;" parent="yCYxKsMmbu7pB_q9ckmc-1" vertex="1">
                        <mxGeometry x="480" y="335" width="200" height="170" as="geometry"/>
                    </mxCell>
                </object>
                <object placeholders="1" c4Type="" c4Container="Comment-Manager" c4Technology="" c4Description="Service for comments" label="&lt;font style=&quot;font-size: 16px&quot;&gt;&lt;b&gt;%c4Type%&lt;/font&gt;&lt;div&gt;[%c4Container%:&amp;nbsp;%c4Technology%]&lt;/div&gt;&lt;br&gt;&lt;div&gt;&lt;font style=&quot;font-size: 11px&quot;&gt;&lt;font color=&quot;#E6E6E6&quot;&gt;%c4Description%&lt;/font&gt;&lt;/div&gt;" id="YLGxx5Vn13RV-jvaRaKH-3">
                    <mxCell style="shape=hexagon;size=50;perimeter=hexagonPerimeter2;whiteSpace=wrap;html=1;fixedSize=1;rounded=1;labelBackgroundColor=none;fillColor=#23A2D9;fontSize=12;fontColor=#ffffff;align=center;strokeColor=#0E7DAD;metaEdit=1;points=[[0.5,0,0],[1,0.25,0],[1,0.5,0],[1,0.75,0],[0.5,1,0],[0,0.75,0],[0,0.5,0],[0,0.25,0]];resizable=0;" parent="yCYxKsMmbu7pB_q9ckmc-1" vertex="1">
                        <mxGeometry x="90" y="665" width="200" height="170" as="geometry"/>
                    </mxCell>
                </object>
                <object placeholders="1" c4Name="User" c4Type="Common" c4Description="Stakeholder of normal usage" label="&lt;font style=&quot;font-size: 16px&quot;&gt;&lt;b&gt;%c4Name%&lt;/b&gt;&lt;/font&gt;&lt;div&gt;[%c4Type%]&lt;/div&gt;&lt;br&gt;&lt;div&gt;&lt;font style=&quot;font-size: 11px&quot;&gt;&lt;font color=&quot;#cccccc&quot;&gt;%c4Description%&lt;/font&gt;&lt;/div&gt;" id="YLGxx5Vn13RV-jvaRaKH-7">
                    <mxCell style="html=1;fontSize=11;dashed=0;whitespace=wrap;fillColor=#083F75;strokeColor=#06315C;fontColor=#ffffff;shape=mxgraph.c4.person2;align=center;metaEdit=1;points=[[0.5,0,0],[1,0.5,0],[1,0.75,0],[0.75,1,0],[0.5,1,0],[0.25,1,0],[0,0.75,0],[0,0.5,0]];resizable=0;" parent="yCYxKsMmbu7pB_q9ckmc-1" vertex="1">
                        <mxGeometry x="-710" y="440" width="200" height="180" as="geometry"/>
                    </mxCell>
                </object>
                <mxCell id="YLGxx5Vn13RV-jvaRaKH-9" value="" style="edgeStyle=none;html=1;strokeWidth=3;fillColor=#e51400;strokeColor=#B20000;" parent="yCYxKsMmbu7pB_q9ckmc-1" source="YLGxx5Vn13RV-jvaRaKH-8" target="YLGxx5Vn13RV-jvaRaKH-0" edge="1">
                    <mxGeometry relative="1" as="geometry"/>
                </mxCell>
                <mxCell id="YLGxx5Vn13RV-jvaRaKH-10" value="Read BG&lt;br&gt;CR Ratings/Comments of BGs&lt;br&gt;CR Forums of BGs&lt;br&gt;[HTTPS]" style="edgeLabel;html=1;align=center;verticalAlign=middle;resizable=0;points=[];" parent="YLGxx5Vn13RV-jvaRaKH-9" vertex="1" connectable="0">
                    <mxGeometry x="-0.1216" y="-3" relative="1" as="geometry">
                        <mxPoint as="offset"/>
                    </mxGeometry>
                </mxCell>
                <object placeholders="1" c4Name="Frontend" c4Type="Container" c4Technology="TBD" c4Description="Frontend service that glues services via graphical service" label="&lt;font style=&quot;font-size: 16px&quot;&gt;&lt;b&gt;%c4Name%&lt;/b&gt;&lt;/font&gt;&lt;div&gt;[%c4Type%: %c4Technology%]&lt;/div&gt;&lt;br&gt;&lt;div&gt;&lt;font style=&quot;font-size: 11px&quot;&gt;&lt;font color=&quot;#E6E6E6&quot;&gt;%c4Description%&lt;/font&gt;&lt;/div&gt;" id="YLGxx5Vn13RV-jvaRaKH-8">
                    <mxCell style="rounded=1;whiteSpace=wrap;html=1;fontSize=11;labelBackgroundColor=none;fillColor=#23A2D9;fontColor=#ffffff;align=center;arcSize=10;strokeColor=#0E7DAD;metaEdit=1;resizable=0;points=[[0.25,0,0],[0.5,0,0],[0.75,0,0],[1,0.25,0],[1,0.5,0],[1,0.75,0],[0.75,1,0],[0.5,1,0],[0.25,1,0],[0,0.75,0],[0,0.5,0],[0,0.25,0]];" parent="yCYxKsMmbu7pB_q9ckmc-1" vertex="1">
                        <mxGeometry x="-420" y="360" width="240" height="120" as="geometry"/>
                    </mxCell>
                </object>
                <object placeholders="1" c4Name="Admin User" c4Type="Admin" c4Description="Administritive user" label="&lt;font style=&quot;font-size: 16px&quot;&gt;&lt;b&gt;%c4Name%&lt;/b&gt;&lt;/font&gt;&lt;div&gt;[%c4Type%]&lt;/div&gt;&lt;br&gt;&lt;div&gt;&lt;font style=&quot;font-size: 11px&quot;&gt;&lt;font color=&quot;#cccccc&quot;&gt;%c4Description%&lt;/font&gt;&lt;/div&gt;" id="YLGxx5Vn13RV-jvaRaKH-12">
                    <mxCell style="html=1;fontSize=11;dashed=0;whitespace=wrap;fillColor=#083F75;strokeColor=#06315C;fontColor=#ffffff;shape=mxgraph.c4.person2;align=center;metaEdit=1;points=[[0.5,0,0],[1,0.5,0],[1,0.75,0],[0.75,1,0],[0.5,1,0],[0.25,1,0],[0,0.75,0],[0,0.5,0]];resizable=0;" parent="yCYxKsMmbu7pB_q9ckmc-1" vertex="1">
                        <mxGeometry x="-720" y="155" width="200" height="180" as="geometry"/>
                    </mxCell>
                </object>
                <mxCell id="YLGxx5Vn13RV-jvaRaKH-14" value="" style="edgeStyle=none;html=1;strokeWidth=3;entryX=0;entryY=0.5;entryDx=0;entryDy=0;entryPerimeter=0;exitX=1;exitY=0.75;exitDx=0;exitDy=0;exitPerimeter=0;fillColor=#60a917;strokeColor=#2D7600;" parent="yCYxKsMmbu7pB_q9ckmc-1" source="YLGxx5Vn13RV-jvaRaKH-8" target="YLGxx5Vn13RV-jvaRaKH-3" edge="1">
                    <mxGeometry relative="1" as="geometry">
                        <mxPoint x="-520" y="430" as="sourcePoint"/>
                        <mxPoint x="-410" y="430" as="targetPoint"/>
                    </mxGeometry>
                </mxCell>
                <mxCell id="YLGxx5Vn13RV-jvaRaKH-15" value="UD Comments&lt;br&gt;UD Ratings of Comments&lt;br&gt;[HTTPS]" style="edgeLabel;html=1;align=center;verticalAlign=middle;resizable=0;points=[];" parent="YLGxx5Vn13RV-jvaRaKH-14" vertex="1" connectable="0">
                    <mxGeometry x="-0.1646" y="2" relative="1" as="geometry">
                        <mxPoint as="offset"/>
                    </mxGeometry>
                </mxCell>
                <mxCell id="YLGxx5Vn13RV-jvaRaKH-16" value="" style="edgeStyle=none;html=1;strokeWidth=3;entryX=0.252;entryY=0.989;entryDx=0;entryDy=0;entryPerimeter=0;exitX=1;exitY=0.5;exitDx=0;exitDy=0;exitPerimeter=0;fillColor=#60a917;strokeColor=#2D7600;" parent="yCYxKsMmbu7pB_q9ckmc-1" source="YLGxx5Vn13RV-jvaRaKH-3" target="YLGxx5Vn13RV-jvaRaKH-1" edge="1">
                    <mxGeometry relative="1" as="geometry">
                        <mxPoint x="-170" y="460" as="sourcePoint"/>
                        <mxPoint x="100" y="760" as="targetPoint"/>
                    </mxGeometry>
                </mxCell>
                <mxCell id="YLGxx5Vn13RV-jvaRaKH-17" value="Post/Update/Delete &lt;br&gt;Ratings of Comments&lt;br&gt;[HTTPS]" style="edgeLabel;html=1;align=center;verticalAlign=middle;resizable=0;points=[];" parent="YLGxx5Vn13RV-jvaRaKH-16" vertex="1" connectable="0">
                    <mxGeometry x="-0.1646" y="2" relative="1" as="geometry">
                        <mxPoint as="offset"/>
                    </mxGeometry>
                </mxCell>
                <object placeholders="1" c4Type="" c4Container="Forum" c4Technology="TBD" c4Description="Service for Forums" label="&lt;font style=&quot;font-size: 16px&quot;&gt;&lt;b&gt;%c4Type%&lt;/font&gt;&lt;div&gt;[%c4Container%:&amp;nbsp;%c4Technology%]&lt;/div&gt;&lt;br&gt;&lt;div&gt;&lt;font style=&quot;font-size: 11px&quot;&gt;&lt;font color=&quot;#E6E6E6&quot;&gt;%c4Description%&lt;/font&gt;&lt;/div&gt;" id="YLGxx5Vn13RV-jvaRaKH-18">
                    <mxCell style="shape=hexagon;size=50;perimeter=hexagonPerimeter2;whiteSpace=wrap;html=1;fixedSize=1;rounded=1;labelBackgroundColor=none;fillColor=#23A2D9;fontSize=12;fontColor=#ffffff;align=center;strokeColor=#0E7DAD;metaEdit=1;points=[[0.5,0,0],[1,0.25,0],[1,0.5,0],[1,0.75,0],[0.5,1,0],[0,0.75,0],[0,0.5,0],[0,0.25,0]];resizable=0;" parent="yCYxKsMmbu7pB_q9ckmc-1" vertex="1">
                        <mxGeometry x="90" y="30" width="200" height="170" as="geometry"/>
                    </mxCell>
                </object>
                <mxCell id="YLGxx5Vn13RV-jvaRaKH-20" value="" style="edgeStyle=none;html=1;strokeWidth=3;entryX=0;entryY=0.5;entryDx=0;entryDy=0;entryPerimeter=0;exitX=1.001;exitY=0.027;exitDx=0;exitDy=0;exitPerimeter=0;fillColor=#e3c800;strokeColor=#B09500;" parent="yCYxKsMmbu7pB_q9ckmc-1" source="YLGxx5Vn13RV-jvaRaKH-8" target="YLGxx5Vn13RV-jvaRaKH-18" edge="1">
                    <mxGeometry relative="1" as="geometry">
                        <mxPoint x="-169.99999999999977" y="460" as="sourcePoint"/>
                        <mxPoint x="100" y="760" as="targetPoint"/>
                    </mxGeometry>
                </mxCell>
                <mxCell id="YLGxx5Vn13RV-jvaRaKH-21" value="UD Forums&lt;br&gt;CRUD Social Forums&lt;br&gt;[HTTPS]" style="edgeLabel;html=1;align=center;verticalAlign=middle;resizable=0;points=[];" parent="YLGxx5Vn13RV-jvaRaKH-20" vertex="1" connectable="0">
                    <mxGeometry x="-0.1646" y="2" relative="1" as="geometry">
                        <mxPoint as="offset"/>
                    </mxGeometry>
                </mxCell>
                <mxCell id="YLGxx5Vn13RV-jvaRaKH-22" value="" style="edgeStyle=none;html=1;strokeWidth=3;entryX=0.253;entryY=0.008;entryDx=0;entryDy=0;entryPerimeter=0;exitX=1;exitY=0.5;exitDx=0;exitDy=0;exitPerimeter=0;fillColor=#e3c800;strokeColor=#B09500;" parent="yCYxKsMmbu7pB_q9ckmc-1" source="YLGxx5Vn13RV-jvaRaKH-18" target="YLGxx5Vn13RV-jvaRaKH-1" edge="1">
                    <mxGeometry relative="1" as="geometry">
                        <mxPoint x="-169.75999999999976" y="373.24" as="sourcePoint"/>
                        <mxPoint x="99.99999999999977" y="125" as="targetPoint"/>
                    </mxGeometry>
                </mxCell>
                <mxCell id="YLGxx5Vn13RV-jvaRaKH-23" value="Post/Delete/Update/Get &lt;br&gt;Rartings of Forums&lt;br&gt;[HTTPS]" style="edgeLabel;html=1;align=center;verticalAlign=middle;resizable=0;points=[];" parent="YLGxx5Vn13RV-jvaRaKH-22" vertex="1" connectable="0">
                    <mxGeometry x="-0.1646" y="2" relative="1" as="geometry">
                        <mxPoint as="offset"/>
                    </mxGeometry>
                </mxCell>
                <mxCell id="YLGxx5Vn13RV-jvaRaKH-24" value="" style="edgeStyle=none;html=1;strokeWidth=3;entryX=0.765;entryY=1.004;entryDx=0;entryDy=0;entryPerimeter=0;exitX=0.745;exitY=0;exitDx=0;exitDy=0;exitPerimeter=0;fillColor=#e3c800;strokeColor=#B09500;" parent="yCYxKsMmbu7pB_q9ckmc-1" source="YLGxx5Vn13RV-jvaRaKH-18" target="YLGxx5Vn13RV-jvaRaKH-3" edge="1">
                    <mxGeometry relative="1" as="geometry">
                        <mxPoint x="300" y="125" as="sourcePoint"/>
                        <mxPoint x="540.6000000000004" y="346.3600000000001" as="targetPoint"/>
                        <Array as="points">
                            <mxPoint x="720" y="160"/>
                            <mxPoint x="720" y="720"/>
                        </Array>
                    </mxGeometry>
                </mxCell>
                <mxCell id="YLGxx5Vn13RV-jvaRaKH-25" value="Post/Get&lt;br&gt;Comments Forums&lt;br&gt;[HTTPS]" style="edgeLabel;html=1;align=center;verticalAlign=middle;resizable=0;points=[];" parent="YLGxx5Vn13RV-jvaRaKH-24" vertex="1" connectable="0">
                    <mxGeometry x="-0.1646" y="2" relative="1" as="geometry">
                        <mxPoint as="offset"/>
                    </mxGeometry>
                </mxCell>
            </root>
        </mxGraphModel>
    </diagram>
</mxfile>